# Blender v2.79 (sub 0) OBJ File: 'roll_container.blend'
# www.blender.org
o visual_container_base_Part__Feature
v -0.348139 -0.038352 0.407052
v -0.348139 0.026766 0.407052
v -0.348139 -0.038352 -0.421456
v -0.348139 0.026766 -0.421456
v 0.352862 -0.038352 0.407052
v 0.352862 0.026766 0.407052
v 0.352862 -0.038352 -0.421456
v 0.352862 0.026766 -0.421456
vn -1.0000 0.0000 0.0000
vn 0.0000 0.0000 -1.0000
vn 1.0000 0.0000 0.0000
vn 0.0000 0.0000 1.0000
vn 0.0000 -1.0000 0.0000
vn 0.0000 1.0000 0.0000
s off
f 1//1 2//1 4//1 3//1
f 3//2 4//2 8//2 7//2
f 7//3 8//3 6//3 5//3
f 5//4 6//4 2//4 1//4
f 3//5 7//5 5//5 1//5
f 8//6 4//6 2//6 6//6
