# Blender v2.79 (sub 0) OBJ File: 'roll_container.blend'
# www.blender.org
o visual_wire_lattice_left_Part__Feature162
v -0.001761 -0.691967 0.019747
v -0.002236 -0.691712 -0.019508
v 0.011326 -0.688056 -0.019978
v 0.012460 -0.670817 -0.019979
v 0.012551 -0.667407 0.020022
v 0.001482 -0.661411 -0.019978
v 0.028895 -0.746704 0.005648
v 0.031720 -0.743146 0.004568
v 0.030629 -0.744839 -0.005143
v 0.043900 -0.748014 0.019269
v 0.038456 -0.744285 -0.020460
v 0.044270 -0.749280 -0.018785
v -0.010235 -0.667540 -0.019978
v 0.010688 -0.682287 -0.019978
v -0.015809 -0.746081 -0.019977
v -0.012930 -0.743124 -0.019978
v -0.014032 -0.667086 -0.019978
v 0.011093 -0.685808 0.020022
v 0.008661 -0.668098 0.020022
v -0.010732 -0.665177 0.020022
v -0.014244 -0.744741 0.020022
v 0.022711 -0.746858 -0.003374
v 0.022610 -0.743355 0.000951
v 0.001845 0.336910 -0.369733
v 0.003509 0.233601 -0.370575
v 0.005833 0.336910 -0.371546
v 0.001779 -0.612213 -0.371611
v 0.003690 0.187648 -0.370458
v 0.005633 -0.612213 -0.369570
v 0.003854 0.685187 -0.370679
v 0.004818 0.382864 -0.368594
v 0.002819 0.382864 -0.372541
v 0.003019 -0.687666 -0.373017
v -0.006656 -0.667882 -0.373536
v 0.008524 -0.672276 -0.377080
v 0.007032 -0.669263 0.375828
v -0.008816 -0.667960 0.374595
v -0.011673 -0.682792 -0.378604
v 0.007493 -0.672619 0.376624
v -0.011291 -0.680420 0.379263
v -0.008385 -0.683760 -0.375297
v -0.002554 -0.689403 0.371892
v 0.002596 -0.687087 0.372789
v -0.004302 -0.668214 0.372907
v 0.009140 -0.682174 0.379314
v 0.008010 0.724331 -0.365603
v 0.003522 0.700735 -0.394223
v 0.007432 0.741215 -0.339739
v 0.008227 0.750462 -0.357076
v 0.001722 0.729463 -0.384416
v 0.009293 0.724385 -0.381181
v 0.006994 0.699810 -0.375172
v 0.003187 0.760034 -0.337137
v -0.004123 0.704629 -0.371775
v -0.003450 0.738209 -0.337786
v -0.010853 0.721303 -0.377935
v -0.002424 0.759636 -0.334690
v -0.004431 0.705462 -0.373681
v -0.005938 0.730296 -0.357876
v -0.007423 0.717616 -0.388651
v -0.009711 0.744146 -0.340890
v -0.001377 0.739784 -0.337990
v -0.000262 0.749322 -0.362429
v -0.009251 0.750093 -0.353350
v -0.000141 0.703062 -0.392928
v 0.003862 0.721175 0.364333
v 0.005706 0.707642 0.392238
v 0.003497 0.759284 0.343768
v -0.001709 0.741867 0.374648
v 0.009267 0.744314 0.364511
v 0.001553 0.738257 0.338270
v 0.009978 0.713908 0.378349
v 0.008293 0.741426 0.345621
v 0.003687 0.698881 0.373215
v -0.009431 0.742488 0.346328
v -0.003796 0.717283 0.367247
v -0.008883 0.706291 0.376770
v -0.001062 0.740308 0.332509
v -0.003595 0.759929 0.335800
v -0.008021 0.713425 0.388799
v -0.010382 0.743876 0.359428
v -0.002487 0.748902 0.362879
v 0.004613 -0.738513 -0.393488
v 0.007338 -0.738513 0.390661
v 0.004716 0.707096 0.390680
v -0.007540 -0.738513 0.393012
v -0.012104 -0.738513 0.380596
v 0.004815 -0.738513 0.373946
v 0.002426 0.699525 0.374193
v -0.003307 0.712101 0.393094
v 0.007378 0.749078 0.355070
v 0.008755 0.725293 0.371561
v 0.004617 0.739463 0.343887
v -0.000187 0.729528 0.382842
v -0.007308 0.738772 0.343468
v -0.009303 0.706204 0.374273
v -0.011249 0.722450 0.382972
v -0.012846 0.745615 0.356242
v -0.007909 0.720968 0.365603
v -0.007773 0.758105 0.343717
v 0.006381 0.752864 -0.349583
v 0.006898 0.729388 -0.365095
v 0.005601 0.701621 -0.376165
v 0.007076 0.721226 -0.384013
v 0.006910 0.743655 -0.335066
v -0.011910 0.743739 -0.342197
v -0.009006 0.758517 -0.339296
v -0.006776 0.726173 -0.359732
v -0.004707 0.750991 -0.362256
v -0.007887 0.711999 -0.391326
v -0.011865 0.710104 -0.378128
v -0.011897 0.730564 -0.375889
v 0.009697 -0.738513 -0.383076
v -0.012345 -0.738513 -0.387978
v -0.001594 -0.738513 -0.372673
v 0.004791 0.738987 0.023021
v 0.003616 -0.666013 0.024935
v 0.002661 0.738987 0.026686
v 0.004791 0.738987 -0.026779
v 0.003616 -0.666013 -0.024865
v 0.002661 0.738987 -0.023114
v 0.003971 0.738987 0.300347
v 0.003924 -0.666013 0.302425
v 0.003873 -0.666013 0.298102
v 0.003947 0.738987 0.200160
v 0.001875 -0.666013 0.199055
v 0.005647 -0.666013 0.201395
v -0.000154 0.633360 0.372522
v 0.000591 0.635606 -0.372478
v -0.000451 0.631570 -0.372478
v -0.002086 0.584658 -0.372478
v 0.001894 0.582882 -0.372478
v 0.000100 0.583785 0.372522
v 0.000100 0.534031 0.372522
v -0.002086 0.534904 -0.372478
v 0.001894 0.533128 -0.372478
v -0.000104 0.484358 -0.372478
v -0.001949 0.483472 0.372522
v 0.002019 0.485262 0.372522
v 0.001240 0.436183 0.372522
v -0.000127 0.434286 -0.372478
v -0.001237 0.432881 0.372522
v 0.000251 0.386933 0.372522
v -0.000092 0.384859 -0.372478
v -0.000302 0.382809 0.372522
v -0.000279 0.333180 0.372522
v 0.000156 0.337259 0.372522
v -0.000023 0.335308 -0.372478
v -0.000168 0.285013 0.372522
v 0.002150 0.284694 -0.372478
v -0.002250 0.285734 -0.372478
v 0.000835 0.237622 -0.372478
v 0.000166 0.235615 0.372522
v -0.000606 0.233579 -0.372478
v -0.000032 0.185580 0.372522
v 0.000548 0.187770 -0.372478
v -0.000602 0.183653 -0.372478
v 0.000636 0.134032 0.372522
v -0.000720 0.138155 0.372522
v 0.000077 0.135927 -0.372478
v -0.001966 0.087135 -0.372478
v -0.000115 0.086097 0.372522
v 0.001998 0.085364 -0.372478
v -0.001097 0.037954 -0.372478
v -0.000037 0.036220 0.372522
v 0.001063 0.034673 -0.372478
v 0.000179 -0.013392 -0.372478
v -0.000065 -0.011208 0.372522
v 0.000063 -0.015497 0.372522
v 0.002049 -0.062107 -0.372478
v -0.002135 -0.063828 -0.372478
v 0.000046 -0.062750 0.372522
v 0.001025 -0.114505 0.372522
v -0.001083 -0.110916 0.372522
v 0.000006 -0.112805 -0.372478
v -0.000118 -0.162505 -0.372478
v -0.001184 -0.160682 0.372522
v 0.001018 -0.164518 0.372522
v 0.001692 -0.213429 0.372522
v -0.001787 -0.210929 0.372522
v 0.000191 -0.212158 -0.372478
v 0.002197 -0.262119 0.372522
v -0.000102 -0.262019 -0.372478
v -0.002224 -0.262020 0.372522
v 0.001758 -0.310873 0.372522
v 0.000350 -0.311802 -0.372478
v -0.001868 -0.312980 0.372522
v 0.002079 -0.361756 0.372522
v 0.000266 -0.361634 -0.372478
v -0.002248 -0.361460 0.372522
v 0.001998 -0.410423 0.372522
v -0.000125 -0.411227 -0.372478
v -0.001957 -0.412206 0.372522
v 0.000688 -0.463120 0.372522
v -0.000162 -0.460920 -0.372478
v -0.000760 -0.459130 0.372522
v -0.000383 -0.508900 -0.372478
v 0.000119 -0.511068 0.372522
v 0.000476 -0.512946 -0.372478
v 0.001794 -0.561192 0.372522
v -0.002140 -0.559876 0.372522
v -0.000278 -0.560464 -0.372478
v 0.004490 0.738987 0.102425
v 0.003199 0.738987 0.098311
v 0.003889 -0.666013 0.100142
v 0.004004 0.738987 -0.300248
v 0.001841 -0.666013 -0.299200
v 0.005808 -0.666013 -0.301286
v 0.004994 -0.666013 -0.202147
v 0.003581 0.738987 -0.200261
v 0.002501 -0.666013 -0.198482
v 0.004552 -0.666013 -0.102098
v 0.003868 0.738987 -0.100300
v 0.002951 -0.666013 -0.098186
v 0.003603 0.237402 0.370863
v 0.005477 -0.512707 0.370878
v 0.001633 -0.512707 0.370583
v -0.002178 -0.609581 -0.372478
v -0.000010 -0.610106 -0.022978
v 0.002060 -0.610939 -0.372478
v 0.000023 0.683187 -0.022978
v -0.000348 0.685396 -0.372478
v 0.000169 0.681032 -0.372478
v -0.000477 -0.608241 0.023022
v -0.000032 -0.610466 0.372522
v 0.000374 -0.612252 0.023022
v 0.000023 0.683187 0.372522
v -0.000348 0.685396 0.023022
v 0.000169 0.681032 0.023022
v 0.004893 0.382864 0.368586
v 0.003859 0.685187 0.370397
v 0.002689 0.382864 0.372541
v -0.000855 0.738955 -0.022978
v 0.000947 0.735133 -0.022978
v 0.000171 0.737012 -0.302178
v 0.000345 -0.662390 0.302222
v 0.000139 -0.664089 0.023022
v -0.000330 -0.666181 0.302222
v 0.000947 0.735133 0.302222
v 0.000171 0.737012 0.023022
v -0.000855 0.738955 0.302222
v 0.003942 0.336910 0.370412
v 0.005956 0.283355 0.370568
v 0.001733 0.283355 0.370397
v 0.003769 -0.558658 0.370524
v 0.004240 -0.612214 0.368481
v 0.003294 -0.612213 0.372815
v 0.002191 -0.663903 -0.022978
v 0.000196 -0.664012 -0.302178
v -0.002234 -0.664213 -0.022978
vn 0.0947 0.9880 0.1219
vn 0.9978 -0.0657 0.0095
vn 0.3210 -0.7323 0.6006
vn 0.2600 -0.9656 -0.0094
vn -0.9829 0.1519 -0.1037
vn 0.9989 -0.0441 0.0150
vn -0.5889 0.8081 0.0124
vn 0.3288 -0.5034 -0.7990
vn -0.9983 0.0441 0.0376
vn -0.3435 0.9390 -0.0165
vn 0.6492 0.7577 -0.0661
vn 0.6546 0.7557 -0.0188
vn -0.1487 -0.9873 0.0565
vn 0.3243 0.9449 0.0443
vn -0.7859 0.6180 -0.0194
vn 0.0001 -0.0000 1.0000
vn 0.0000 0.0002 1.0000
vn 0.9989 -0.0356 0.0314
vn -0.2830 -0.9587 0.0291
vn -0.4320 0.8980 0.0834
vn 0.9969 -0.0790 0.0045
vn -0.1427 -0.9883 0.0536
vn -0.9907 -0.1361 -0.0019
vn 0.6607 0.5909 -0.4629
vn 0.4306 -0.9010 0.0531
vn -0.9965 0.0224 0.0811
vn -0.0164 -0.3351 -0.9421
vn 0.0188 -0.0186 -0.9997
vn -0.0000 -0.0000 -1.0000
vn -0.0000 0.0001 -1.0000
vn -0.0001 -0.0000 -1.0000
vn -0.0336 -0.0037 -0.9994
vn -0.0002 -0.0000 -1.0000
vn -0.3173 0.9396 -0.1282
vn 0.0230 0.9986 0.0479
vn -0.0170 0.9991 0.0398
vn 0.0576 0.9610 0.2705
vn 0.0834 0.9879 -0.1307
vn -0.0293 0.9994 0.0160
vn 0.0599 -0.9852 -0.1607
vn -0.0566 -0.9978 -0.0336
vn -0.0352 -0.9988 0.0348
vn -0.0324 -0.9987 0.0392
vn -0.0546 -0.9953 0.0801
vn 0.3203 -0.7587 0.5673
vn 0.9683 -0.2500 0.0002
vn 0.2659 -0.9640 -0.0019
vn 0.9987 -0.0001 -0.0515
vn 0.9941 -0.1087 0.0043
vn -0.9683 0.2500 -0.0002
vn -0.9782 -0.2078 0.0001
vn -0.2408 -0.0012 -0.9706
vn 0.2774 0.9608 -0.0033
vn 0.0819 0.9966 0.0003
vn 0.5273 -0.0001 -0.8497
vn -0.2278 0.1949 0.9540
vn 0.6776 -0.0028 0.7354
vn -0.7856 0.0023 0.6187
vn 0.9770 0.0005 0.2133
vn -0.3133 -0.9497 -0.0046
vn 0.5249 -0.8511 0.0019
vn 0.6118 0.5503 -0.5682
vn -0.4078 -0.9131 -0.0003
vn 0.9960 -0.0350 0.0819
vn -0.3051 -0.9523 0.0005
vn 0.8921 -0.0003 -0.4518
vn -0.7768 -0.6298 0.0007
vn -0.9985 -0.0555 0.0011
vn 0.7168 0.6973 -0.0003
vn -0.4654 0.0001 -0.8851
vn -0.5273 0.0001 0.8497
vn -0.3658 -0.0034 -0.9307
vn -0.9255 0.0000 -0.3786
vn 0.2299 0.9732 0.0003
vn 0.9420 -0.3356 -0.0001
vn -0.3090 -0.0007 -0.9511
vn -0.0815 -0.0006 -0.9967
vn 0.9981 -0.0618 0.0073
vn -0.1561 -0.0003 -0.9877
vn 0.1447 -0.0028 -0.9895
vn 0.3658 0.0004 0.9307
vn 0.1561 -0.0009 0.9877
vn 0.0944 -0.0003 0.9955
vn 0.5997 -0.5309 -0.5987
vn 0.4654 -0.0001 0.8851
vn -0.9582 0.0297 -0.2846
vn 0.5391 -0.6057 0.5852
vn 0.0404 -0.0014 -0.9992
vn -0.5296 -0.3918 -0.7523
vn 0.9323 0.3618 0.0017
vn -0.0774 -0.9954 -0.0573
vn 0.9999 -0.0001 -0.0118
vn 0.3241 0.9460 -0.0006
vn -0.4231 0.9061 -0.0005
vn -0.9500 -0.3123 -0.0001
vn -0.4210 0.5245 -0.7401
vn -0.8104 0.4947 -0.3139
vn 0.0765 0.0002 -0.9971
vn -0.7851 0.0388 0.6181
vn -0.9575 0.0023 -0.2883
vn -0.4074 -0.9133 0.0001
vn 0.4078 0.9131 0.0003
vn 0.9931 0.1176 -0.0003
vn -0.0936 0.8739 0.4771
vn 0.4074 0.9133 -0.0001
vn -0.1502 -0.9304 0.3342
vn 0.0773 -0.8791 0.4704
vn -0.3806 0.9247 -0.0002
vn -0.3881 0.6022 -0.6976
vn 0.8735 0.0001 0.4868
vn 0.4632 0.8863 0.0019
vn -0.2299 -0.9732 -0.0003
vn -0.0539 -0.7774 -0.6267
vn -0.8268 -0.0001 -0.5625
vn -0.9783 -0.2074 -0.0001
vn 0.3507 0.2666 0.8977
vn 0.9783 0.2074 0.0001
vn 0.9992 -0.0198 0.0353
vn -0.8735 -0.0001 -0.4868
vn -0.3446 0.5078 0.7896
vn -0.9420 0.3356 0.0001
vn -0.5463 -0.8376 -0.0024
vn 0.8672 -0.4980 -0.0030
vn 0.2055 0.9782 -0.0299
vn -0.9942 -0.1031 -0.0299
vn -0.8986 -0.0031 0.4388
vn -0.0933 -0.3678 -0.9252
vn -0.6632 0.5455 0.5124
vn -0.4680 -0.0002 0.8837
vn 0.5084 0.0013 0.8611
vn 0.3051 0.9523 -0.0005
vn -0.9931 -0.1176 0.0003
vn -0.9781 -0.0018 -0.2083
vn -0.2780 -0.9606 0.0004
vn -0.9808 0.0696 0.1823
vn -0.0765 -0.0002 0.9971
vn -0.6104 -0.7921 -0.0007
vn -0.9999 0.0001 0.0118
vn -0.3369 -0.8009 -0.4951
vn -0.7336 -0.3982 0.5508
vn -0.8353 -0.5498 -0.0001
vn 0.4680 0.0002 -0.8837
vn -0.9770 -0.0005 -0.2133
vn 0.8268 0.0001 0.5625
vn -0.8894 -0.4258 0.1662
vn -0.6408 -0.6280 0.4416
vn -0.4063 0.4729 -0.7818
vn -0.2612 0.8719 -0.4142
vn -0.9998 -0.0221 0.0001
vn -0.1237 0.9923 0.0012
vn 0.8353 0.5498 0.0001
vn 0.3129 -0.7921 0.5241
vn 0.9141 0.0005 -0.4054
vn 0.5856 0.3587 0.7269
vn -0.8921 0.0003 0.4518
vn 0.5321 0.7102 -0.4609
vn 0.9782 0.2078 -0.0001
vn 0.5518 0.7022 -0.4500
vn 0.9119 0.1875 0.3650
vn 0.9632 -0.2689 -0.0000
vn 0.3824 0.0005 0.9240
vn -0.0404 0.0014 0.9992
vn 0.9255 -0.0000 0.3786
vn 0.3806 -0.9247 0.0002
vn -0.9632 0.2689 0.0000
vn -0.9607 0.2776 -0.0015
vn 0.1236 -0.3652 0.9227
vn -0.0862 0.3724 -0.9241
vn -0.7763 -0.0010 0.6304
vn -0.5450 0.6936 0.4710
vn 0.8117 -0.5840 0.0017
vn 0.9045 0.4264 0.0004
vn 0.2807 -0.8923 0.3536
vn 0.8673 0.4977 0.0000
vn -0.9819 -0.0019 -0.1892
vn -0.9045 -0.4264 -0.0004
vn 0.2922 -0.0001 0.9564
vn 0.8986 0.0008 -0.4388
vn -0.9808 0.1948 -0.0001
vn -0.9475 0.3197 -0.0027
vn 0.5023 -0.8647 0.0001
vn 0.5671 0.4117 0.7134
vn 0.6321 0.0001 -0.7749
vn 0.9996 0.0298 0.0002
vn 0.9869 0.1614 0.0013
vn 0.4257 -0.9049 -0.0003
vn -0.9471 0.3209 -0.0011
vn -0.9845 0.1752 -0.0003
vn -0.9996 -0.0298 -0.0002
vn -0.7290 0.0662 0.6813
vn -0.7158 -0.6983 0.0025
vn -0.4109 0.9117 0.0002
vn 0.1912 0.9028 -0.3851
vn 0.0684 0.9977 -0.0000
vn 0.5835 0.8121 0.0002
vn -0.3496 -0.9369 -0.0009
vn -0.5858 0.6825 0.4370
vn -0.4139 0.0008 -0.9103
vn -0.9993 -0.0324 0.0158
vn -0.0699 0.9976 0.0001
vn -0.1040 0.9946 0.0008
vn 0.5531 0.0005 -0.8331
vn -0.3409 0.8829 -0.3229
vn 0.5315 -0.6346 -0.5610
vn 0.9600 -0.2624 0.0975
vn 0.9477 -0.3191 -0.0032
vn 0.9969 -0.0783 -0.0006
vn -0.4279 0.1952 0.8825
vn 0.6298 -0.5199 -0.5772
vn 0.9411 -0.3380 -0.0052
vn 0.9500 0.3123 0.0001
vn 0.9342 -0.0002 0.3567
vn 0.1343 0.9909 0.0066
vn -0.9975 0.0608 -0.0356
vn 0.8183 0.0031 -0.5748
vn -0.6657 -0.5561 0.4976
vn 0.9521 -0.0031 0.3058
vn -0.3174 -0.9483 -0.0000
vn -0.5023 0.8647 -0.0001
vn 0.9557 0.0008 0.2943
vn 0.3174 0.9483 0.0000
vn 0.8623 0.5063 -0.0000
vn -0.5835 -0.8121 -0.0002
vn -0.4116 0.9113 0.0101
vn 0.2832 -0.4412 0.8516
vn 0.2639 0.6503 0.7124
vn 0.4109 -0.9117 -0.0002
vn 0.7203 -0.5491 -0.4237
vn 0.2869 0.8129 0.5068
vn 0.7093 0.0010 -0.7050
vn 0.0224 0.9997 0.0001
vn -0.0224 -0.9997 -0.0001
vn -0.0939 -0.6218 0.7775
vn -0.8646 0.0000 -0.5024
vn 0.9911 -0.1328 -0.0001
vn 0.2508 0.9680 -0.0009
vn 0.4487 0.4575 0.7677
vn -0.9542 -0.0001 0.2993
vn -0.4567 -0.6641 -0.5919
vn 0.2234 0.0021 0.9747
vn -0.6776 0.0016 -0.7354
vn -0.0274 -0.3351 -0.9418
vn 0.9497 -0.3131 -0.0011
vn 0.9960 -0.0898 -0.0022
vn -0.9258 0.3779 0.0019
vn -0.9888 0.0029 0.1493
vn -0.8183 -0.0036 0.5748
vn -0.8623 -0.5063 0.0000
vn 0.3424 0.5453 0.7651
vn -0.9944 0.1061 -0.0000
vn -0.9263 -0.2809 -0.2511
vn 0.8991 0.2725 -0.3425
vn 0.9888 -0.0031 -0.1493
vn -0.7939 -0.3478 -0.4987
vn -0.8673 -0.4977 -0.0000
vn 0.5387 0.3022 -0.7864
vn 0.0834 0.3266 -0.9415
vn -0.9755 0.0009 -0.2200
vn -0.7999 0.6001 -0.0001
vn -0.9400 -0.3411 0.0001
vn 0.8850 0.4657 0.0001
vn -0.9416 0.3366 -0.0008
vn -0.3246 -0.4560 -0.8287
vn 0.8311 -0.3872 0.3992
vn -0.0577 -0.9983 0.0005
vn 0.3090 -0.0006 0.9511
vn -0.0608 0.9451 -0.3212
vn 0.7999 -0.6001 0.0001
vn -0.7006 -0.7135 -0.0028
vn 0.9542 0.0001 -0.2993
vn -0.9386 -0.0000 0.3450
vn 0.9940 -0.0730 0.0816
vn -0.4112 0.9116 0.0001
vn 0.9974 0.0001 -0.0715
vn 0.9386 -0.0030 -0.3450
vn 0.9972 0.0054 -0.0746
vn 0.4139 -0.0008 0.9103
vn 0.4112 -0.9116 -0.0001
vn -0.1584 0.9048 -0.3954
vn -0.9911 0.1328 0.0001
vn 0.9944 -0.1061 0.0000
vn 0.9667 0.2522 0.0435
vn -0.6351 -0.0016 0.7725
vn -0.2475 -0.0015 -0.9689
vn 0.8573 -0.1963 -0.4759
vn 0.6046 -0.7288 -0.3215
vn 0.3336 0.9410 -0.0565
vn -0.2646 -0.8969 -0.3544
vn -0.1994 -0.3668 0.9087
vn 0.8646 -0.0000 0.5024
vn 0.9845 -0.1752 0.0003
vn -0.9553 -0.0336 0.2936
vn 0.2804 0.7279 -0.6258
vn 0.9400 0.3411 -0.0001
vn -0.7890 -0.3803 -0.4826
vn -0.9812 0.1932 -0.0018
vn 0.0699 -0.9976 -0.0001
vn -0.9748 0.2076 -0.0816
vn -0.0684 -0.9977 0.0000
s off
f 6//1 20//1 5//1
f 18//2 3//2 4//2
f 22//3 9//3 23//3
f 1//4 2//4 3//4
f 19//5 4//5 14//5
f 21//6 13//6 20//6
f 1//7 14//7 2//7
f 7//8 23//8 8//8
f 20//9 15//9 21//9
f 20//10 6//10 17//10
f 5//11 4//11 6//11
f 10//12 12//12 11//12
f 19//13 20//13 13//13
f 10//14 11//14 8//14
f 9//15 7//15 8//15
f 18//16 5//16 19//16
f 5//17 20//17 19//17
f 21//18 16//18 13//18
f 12//19 10//19 9//19
f 1//20 18//20 14//20
f 5//21 18//21 4//21
f 19//22 13//22 4//22
f 18//23 19//23 14//23
f 7//24 22//24 23//24
f 18//25 1//25 3//25
f 20//26 17//26 15//26
f 16//27 11//27 12//27
f 12//28 15//28 16//28
f 15//29 17//29 13//29
f 17//30 6//30 13//30
f 4//31 3//31 14//31
f 14//32 3//32 2//32
f 13//33 16//33 15//33
f 6//29 4//29 13//29
f 9//34 8//34 11//34
f 11//35 16//35 9//35
f 16//36 21//36 23//36
f 21//37 10//37 8//37
f 9//38 16//38 23//38
f 21//39 8//39 23//39
f 7//40 9//40 10//40
f 10//41 21//41 7//41
f 21//42 15//42 22//42
f 7//43 21//43 22//43
f 15//44 12//44 22//44
f 12//45 9//45 22//45
f 128//46 130//46 129//46
f 71//47 55//47 48//47
f 73//48 70//48 72//48
f 34//49 40//49 41//49
f 128//50 129//50 130//50
f 198//51 197//51 199//51
f 103//52 115//52 58//52
f 36//53 35//53 34//53
f 37//54 36//54 34//54
f 125//55 127//55 126//55
f 44//56 39//56 36//56
f 52//57 115//57 113//57
f 97//58 86//58 90//58
f 245//59 247//59 246//59
f 42//60 38//60 33//60
f 45//61 42//61 33//61
f 50//62 49//62 51//62
f 162//63 161//63 163//63
f 46//64 51//64 49//64
f 219//65 218//65 220//65
f 30//66 31//66 32//66
f 98//67 106//67 95//67
f 91//68 101//68 105//68
f 41//69 40//69 42//69
f 206//70 208//70 207//70
f 125//71 126//71 127//71
f 96//72 88//72 87//72
f 213//73 212//73 214//73
f 149//74 150//74 151//74
f 153//75 154//75 152//75
f 47//76 83//76 114//76
f 88//77 96//77 74//77
f 64//78 61//78 56//78
f 84//79 86//79 85//79
f 85//80 86//80 80//80
f 87//81 88//81 89//81
f 86//82 84//82 67//82
f 86//83 67//83 90//83
f 82//84 80//84 81//84
f 206//85 207//85 208//85
f 110//86 111//86 112//86
f 60//87 63//87 64//87
f 242//88 243//88 244//88
f 99//89 96//89 98//89
f 70//90 49//90 68//90
f 37//91 44//91 36//91
f 122//92 123//92 124//92
f 41//93 43//93 33//93
f 78//94 105//94 62//94
f 160//95 158//95 159//95
f 50//96 110//96 112//96
f 107//97 109//97 112//97
f 215//98 216//98 217//98
f 45//99 36//99 39//99
f 111//100 110//100 114//100
f 133//101 131//101 132//101
f 162//102 163//102 161//102
f 227//103 229//103 228//103
f 69//104 68//104 100//104
f 133//105 132//105 131//105
f 57//106 63//106 101//106
f 46//107 55//107 108//107
f 172//108 170//108 171//108
f 112//109 109//109 50//109
f 231//110 232//110 230//110
f 134//101 135//101 136//101
f 75//111 62//111 61//111
f 149//112 151//112 150//112
f 66//113 99//113 95//113
f 210//114 209//114 211//114
f 225//115 224//115 226//115
f 37//116 40//116 44//116
f 225//117 226//117 224//117
f 48//118 46//118 49//118
f 231//119 230//119 232//119
f 90//120 69//120 97//120
f 153//121 152//121 154//121
f 95//122 106//122 55//122
f 40//123 34//123 44//123
f 78//124 75//124 93//124
f 97//125 98//125 96//125
f 65//126 83//126 113//126
f 74//127 99//127 66//127
f 97//128 69//128 98//128
f 28//129 27//129 29//129
f 60//130 83//130 65//130
f 219//131 220//131 218//131
f 227//132 228//132 229//132
f 92//133 84//133 85//133
f 35//134 44//134 34//134
f 93//135 92//135 91//135
f 215//136 217//136 216//136
f 79//137 57//137 101//137
f 122//138 124//138 123//138
f 95//139 71//139 66//139
f 54//140 108//140 111//140
f 165//141 164//141 166//141
f 221//103 223//103 222//103
f 28//142 29//142 27//142
f 245//143 246//143 247//143
f 210//144 211//144 209//144
f 112//145 108//145 106//145
f 106//146 108//146 55//146
f 58//147 59//147 102//147
f 62//148 105//148 102//148
f 102//149 101//149 104//149
f 68//150 53//150 107//150
f 165//151 166//151 164//151
f 46//152 48//152 55//152
f 47//153 51//153 83//153
f 76//154 81//154 77//154
f 30//155 32//155 31//155
f 59//156 61//156 62//156
f 197//157 198//157 199//157
f 59//158 56//158 61//158
f 67//159 72//159 70//159
f 155//160 157//160 156//160
f 89//161 88//161 92//161
f 242//162 244//162 243//162
f 213//163 214//163 212//163
f 172//164 171//164 170//164
f 155//165 156//165 157//165
f 91//166 105//166 93//166
f 134//105 136//105 135//105
f 54//167 52//167 46//167
f 58//168 102//168 103//168
f 65//169 113//169 104//169
f 98//170 69//170 100//170
f 64//171 57//171 79//171
f 233//172 234//172 235//172
f 64//173 63//173 57//173
f 177//174 178//174 176//174
f 104//175 113//175 103//175
f 234//176 233//176 235//176
f 52//177 54//177 115//177
f 113//178 83//178 51//178
f 38//179 40//179 37//179
f 34//180 38//180 37//180
f 185//181 187//181 186//181
f 90//182 70//182 69//182
f 74//183 72//183 88//183
f 168//184 169//184 167//184
f 35//185 36//185 45//185
f 73//186 71//186 48//186
f 43//187 39//187 35//187
f 238//188 236//188 237//188
f 169//189 168//189 167//189
f 39//190 43//190 45//190
f 38//191 42//191 40//191
f 193//192 191//192 192//192
f 53//193 49//193 109//193
f 190//194 188//194 189//194
f 180//195 179//195 181//195
f 35//196 39//196 44//196
f 92//197 93//197 76//197
f 24//198 26//198 25//198
f 101//199 102//199 105//199
f 250//200 248//200 249//200
f 100//201 68//201 107//201
f 56//202 58//202 115//202
f 43//203 42//203 45//203
f 72//204 66//204 73//204
f 79//205 81//205 75//205
f 79//206 75//206 64//206
f 75//207 61//207 64//207
f 92//208 76//208 89//208
f 82//209 94//209 80//209
f 33//210 35//210 45//210
f 159//211 158//211 160//211
f 113//212 51//212 52//212
f 78//213 93//213 105//213
f 104//214 103//214 102//214
f 56//215 115//215 114//215
f 104//216 101//216 63//216
f 114//217 60//217 56//217
f 200//218 201//218 202//218
f 187//219 185//219 186//219
f 72//220 67//220 84//220
f 201//221 200//221 202//221
f 174//222 173//222 175//222
f 181//223 179//223 180//223
f 41//224 42//224 43//224
f 108//225 54//225 46//225
f 76//226 93//226 75//226
f 191//227 193//227 192//227
f 71//228 73//228 66//228
f 69//229 70//229 68//229
f 34//230 41//230 38//230
f 184//231 182//231 183//231
f 182//232 184//232 183//232
f 63//233 60//233 104//233
f 118//234 116//234 117//234
f 143//235 145//235 144//235
f 75//236 78//236 62//236
f 76//237 77//237 89//237
f 203//238 204//238 205//238
f 82//239 91//239 94//239
f 89//240 77//240 87//240
f 103//241 113//241 115//241
f 94//242 85//242 80//242
f 70//243 73//243 48//243
f 49//244 70//244 48//244
f 107//245 98//245 100//245
f 88//246 84//246 92//246
f 111//247 114//247 115//247
f 173//248 174//248 175//248
f 70//249 90//249 67//249
f 146//250 147//250 148//250
f 99//251 98//251 95//251
f 59//252 58//252 56//252
f 84//253 88//253 72//253
f 239//176 241//176 240//176
f 241//172 239//172 240//172
f 85//254 94//254 92//254
f 178//255 177//255 176//255
f 50//256 51//256 47//256
f 110//257 50//257 47//257
f 121//234 119//234 120//234
f 96//258 87//258 97//258
f 142//259 140//259 141//259
f 194//260 196//260 195//260
f 49//261 53//261 68//261
f 43//262 35//262 33//262
f 74//263 96//263 99//263
f 64//264 56//264 60//264
f 71//265 95//265 55//265
f 60//266 114//266 83//266
f 107//267 53//267 109//267
f 140//268 142//268 141//268
f 91//269 79//269 101//269
f 204//270 203//270 205//270
f 97//271 87//271 86//271
f 222//132 223//132 221//132
f 46//272 52//272 51//272
f 138//273 139//273 137//273
f 80//274 86//274 77//274
f 86//275 87//275 77//275
f 80//276 77//276 81//276
f 26//277 24//277 25//277
f 139//278 138//278 137//278
f 102//279 59//279 62//279
f 145//280 143//280 144//280
f 147//281 146//281 148//281
f 76//282 75//282 81//282
f 54//283 111//283 115//283
f 110//284 47//284 114//284
f 74//285 66//285 72//285
f 79//286 82//286 81//286
f 33//287 38//287 41//287
f 79//288 91//288 82//288
f 65//289 104//289 60//289
f 116//290 118//290 117//290
f 236//291 238//291 237//291
f 108//292 112//292 111//292
f 109//293 49//293 50//293
f 196//294 194//294 195//294
f 91//295 92//295 94//295
f 107//296 106//296 98//296
f 248//297 250//297 249//297
f 119//290 121//290 120//290
f 107//298 112//298 106//298
f 188//299 190//299 189//299
