# Blender v2.79 (sub 0) OBJ File: 'roll_container.blend'
# www.blender.org
o visual_wire_lattice_right_Part__Feature165
v 0.003162 -0.691251 -0.017822
v 0.000677 -0.692003 0.020318
v -0.008741 -0.690510 -0.019606
v -0.012844 -0.683797 0.020394
v -0.015324 -0.675215 -0.019606
v -0.008218 -0.662821 0.020394
v -0.004442 -0.663851 -0.019606
v -0.027809 -0.742774 -0.005535
v -0.029263 -0.746228 -0.005182
v -0.034044 -0.746190 0.003723
v -0.033916 -0.742664 0.003546
v -0.046616 -0.748378 -0.017312
v 0.010492 -0.668231 0.020394
v -0.034456 -0.742756 0.020391
v 0.014033 -0.746713 0.020392
v 0.012000 -0.743296 0.020393
v -0.005211 -0.666193 0.020394
v 0.015069 -0.667692 0.020394
v -0.010917 -0.684031 -0.019606
v 0.015217 -0.674596 -0.019606
v 0.009761 -0.665355 -0.019606
v 0.011536 -0.743524 -0.019606
v 0.014620 -0.746342 -0.019605
v -0.033005 -0.744714 -0.020069
v -0.045706 -0.748058 0.019350
v -0.023887 -0.744853 0.002728
v -0.005386 0.233587 -0.371709
v -0.003861 0.336895 -0.370191
v -0.002112 0.233587 -0.368749
v -0.005564 -0.612228 -0.371243
v -0.001844 -0.612228 -0.369084
v -0.003681 0.187633 -0.370056
v -0.005923 0.382849 -0.369912
v -0.003837 0.685172 -0.369952
v -0.001650 0.382849 -0.370444
v -0.009548 -0.681803 0.379882
v -0.007652 -0.682909 0.376493
v 0.000019 -0.688364 0.372948
v -0.002998 -0.665882 0.372711
v -0.001137 -0.667956 0.373014
v -0.007275 -0.671259 -0.375872
v 0.004248 -0.666798 -0.372000
v 0.011197 -0.672141 -0.378011
v 0.008808 -0.670805 0.376337
v 0.011444 -0.683499 0.378434
v 0.010248 -0.680776 0.377835
v -0.008323 -0.682469 -0.377132
v 0.001908 -0.688974 -0.372190
v 0.006920 -0.686885 -0.373041
v -0.009339 0.750385 0.352617
v 0.000792 0.738393 0.331779
v 0.001140 0.702681 0.395802
v -0.008821 0.742065 0.346864
v 0.001801 0.750750 0.364579
v -0.001483 0.728801 0.385451
v -0.006400 0.698399 0.374932
v -0.007792 0.719242 0.368848
v -0.009582 0.714574 0.385346
v 0.001495 0.761850 0.335873
v -0.000681 0.732189 0.350092
v 0.010571 0.731887 0.372205
v 0.003146 0.705014 0.373809
v -0.000045 0.733586 0.351824
v 0.004936 0.727181 0.383508
v 0.009179 0.742105 0.346365
v 0.007475 0.702099 0.391089
v 0.001122 0.740226 0.332662
v 0.009562 0.711279 0.377477
v 0.002087 0.749622 0.362639
v 0.007436 0.757115 0.340227
v -0.002084 0.702838 0.392576
v -0.008290 0.725318 -0.366446
v -0.003179 0.700740 -0.393958
v -0.009309 0.747573 -0.358605
v -0.010688 0.706244 -0.378368
v 0.007334 0.759790 -0.337530
v -0.006693 0.758317 -0.335254
v -0.007451 0.730872 -0.379118
v -0.001231 0.725505 -0.358691
v -0.005361 0.739740 -0.337626
v 0.002945 0.750722 -0.362903
v 0.000382 0.704129 -0.370951
v 0.002494 0.738546 -0.332378
v 0.003419 0.727583 -0.383365
v -0.000021 0.723080 -0.363922
v 0.001821 0.699165 -0.373381
v 0.010581 0.722699 -0.376653
v 0.002848 0.739808 -0.338405
v 0.009518 0.749344 -0.354394
v 0.007018 0.718949 -0.368388
v 0.009381 0.742842 -0.345997
v 0.000198 0.749518 -0.361533
v 0.009047 0.711026 -0.386233
v 0.004532 0.758571 -0.335788
v 0.000371 0.701629 -0.393052
v -0.002994 -0.738528 0.374721
v -0.009700 -0.738528 0.384348
v 0.009029 -0.738528 0.392307
v 0.009152 -0.738528 -0.376525
v -0.004362 -0.738528 -0.373921
v -0.008734 -0.738528 -0.387190
v -0.001524 -0.738528 -0.393910
v 0.010173 -0.738528 -0.389841
v 0.005484 0.704048 -0.393062
v -0.004974 0.737906 -0.372633
v -0.008160 0.718286 -0.380947
v -0.007708 0.738875 -0.356103
v -0.005399 0.756551 -0.339541
v -0.006273 0.706530 -0.376323
v -0.004313 0.741252 -0.338962
v 0.011143 0.742291 -0.346536
v 0.002700 0.728316 -0.385233
v 0.011837 0.746095 -0.357839
v 0.006884 0.733506 -0.350889
v 0.010850 0.711782 -0.374547
v 0.011534 0.715753 -0.384857
v -0.002920 0.758129 0.337442
v -0.007427 0.743976 0.343738
v -0.003160 0.727833 0.382554
v -0.006908 0.749359 0.355476
v -0.004024 0.727782 0.361453
v -0.004456 0.705876 0.375347
v -0.008331 0.716863 0.378974
v -0.007066 0.714413 0.386215
v 0.012111 0.743950 0.342574
v 0.010179 0.730024 0.379812
v 0.008076 0.701334 0.374108
v 0.012028 0.750204 0.350921
v 0.006825 0.722426 0.364169
v 0.012361 0.702084 0.386282
v -0.003424 -0.738528 0.393674
v 0.009178 -0.738528 0.377086
v -0.005692 0.738972 -0.025606
v -0.003859 -0.666028 -0.024573
v -0.002005 0.738972 -0.023486
v -0.001720 0.738972 0.024828
v -0.004062 -0.666028 0.025368
v -0.005973 0.738972 0.025686
v -0.001792 -0.666028 -0.298765
v -0.004040 0.738972 -0.299769
v -0.005750 -0.666028 -0.300928
v -0.005226 0.738972 -0.201511
v -0.003873 -0.666028 -0.199755
v -0.002309 0.738972 -0.198242
v -0.002112 0.633488 0.372894
v -0.000052 0.633427 -0.372106
v 0.002367 0.633480 0.372894
v 0.001970 0.584710 0.372894
v -0.002032 0.582878 0.372894
v 0.000187 0.583767 -0.372106
v 0.000187 0.534013 -0.372106
v 0.001970 0.534956 0.372894
v -0.002032 0.533124 0.372894
v -0.000217 0.486382 0.372894
v 0.000282 0.482301 0.372894
v 0.000133 0.484334 -0.372106
v -0.001851 0.433525 -0.372106
v 0.000035 0.434335 0.372894
v 0.002127 0.435413 -0.372106
v -0.000011 0.384646 -0.372106
v 0.002206 0.384722 0.372894
v -0.002186 0.384700 0.372894
v -0.001488 0.333718 0.372894
v 0.001873 0.336198 0.372894
v -0.000046 0.334846 -0.372106
v 0.000254 0.285198 0.372894
v 0.001161 0.287032 -0.372106
v -0.000688 0.283806 -0.372106
v -0.000988 0.237550 -0.372106
v 0.000902 0.233542 -0.372106
v -0.000162 0.235386 0.372894
v 0.000046 0.185564 -0.372106
v 0.000671 0.187743 0.372894
v -0.000571 0.183649 0.372894
v 0.000783 0.138017 0.372894
v 0.000354 0.135813 -0.372106
v -0.000357 0.134053 0.372894
v 0.000952 0.088134 0.372894
v -0.000011 0.086248 -0.372106
v -0.000952 0.084187 0.372894
v -0.001172 0.038421 0.372894
v 0.001222 0.034572 0.372894
v -0.000113 0.036576 -0.372106
v -0.000371 -0.011166 0.372894
v 0.000050 -0.013073 -0.372106
v 0.000371 -0.015043 0.372894
v -0.000467 -0.064886 -0.372106
v 0.000187 -0.062896 0.372894
v 0.000602 -0.060942 -0.372106
v 0.000143 -0.112471 -0.372106
v 0.000966 -0.114898 0.372894
v -0.000590 -0.110748 0.372894
v -0.000125 -0.162659 -0.372106
v 0.002176 -0.163317 0.372894
v -0.002120 -0.161851 0.372894
v -0.001635 -0.210822 0.372894
v 0.001695 -0.213486 0.372894
v 0.000259 -0.212219 -0.372106
v -0.001459 -0.260331 0.372894
v 0.000132 -0.261759 -0.372106
v 0.001582 -0.263576 0.372894
v 0.000237 -0.311617 -0.372106
v -0.000224 -0.309623 0.372894
v 0.000348 -0.314040 0.372894
v 0.001769 -0.361318 0.372894
v -0.002026 -0.362044 0.372894
v 0.000099 -0.361332 -0.372106
v -0.002036 -0.412139 -0.372106
v 0.002132 -0.410627 -0.372106
v 0.000118 -0.411267 0.372894
v 0.001384 -0.459186 0.372894
v 0.000019 -0.461090 -0.372106
v -0.001269 -0.462865 0.372894
v 0.000203 -0.510885 -0.372106
v 0.000740 -0.508639 0.372894
v -0.000567 -0.513001 0.372894
v 0.000394 -0.560459 -0.372106
v 0.002182 -0.560623 0.372894
v -0.002268 -0.560426 0.372894
v -0.002731 0.738972 -0.101829
v -0.004635 0.738972 -0.098210
v -0.003775 -0.666028 -0.099957
v -0.003901 0.738972 0.300701
v -0.001906 -0.666028 0.301846
v -0.005511 -0.666028 0.299592
v -0.001706 -0.666028 0.201095
v -0.004031 0.738972 0.200475
v -0.005864 -0.666028 0.200075
v -0.003803 0.738972 0.100933
v -0.001805 -0.666028 0.099981
v -0.005785 -0.666028 0.101699
v -0.002000 -0.610821 0.023394
v 0.000187 -0.610435 0.372894
v 0.002217 -0.609803 0.023394
v -0.001963 0.682796 0.372894
v 0.002251 0.683681 0.372894
v 0.000071 0.683204 0.023394
v 0.002092 -0.610574 -0.022606
v -0.000174 -0.610095 -0.372107
v -0.002194 -0.610036 -0.022606
v 0.000071 0.683204 -0.372106
v 0.002251 0.683681 -0.022606
v -0.001963 0.682796 -0.022606
v -0.000225 0.739307 0.302594
v 0.000054 0.737175 0.023394
v 0.000361 0.734944 0.302594
v 0.000054 0.737175 -0.301806
v -0.000225 0.739307 -0.022606
v 0.000361 0.734944 -0.022606
v -0.001336 -0.662411 -0.301806
v 0.000337 -0.664099 -0.022606
v 0.001625 -0.665739 -0.301806
v -0.004006 0.237387 0.371032
v -0.001802 -0.512722 0.369936
v -0.005563 -0.512722 0.372000
v -0.004620 0.382849 0.373064
v -0.002943 0.382849 0.369070
v -0.003715 0.685172 0.370953
v -0.006019 0.336895 0.371436
v -0.001481 0.336895 0.370574
v -0.003839 0.283339 0.370890
v -0.004553 -0.612229 0.368852
v -0.003820 -0.558675 0.371231
v -0.003066 -0.612228 0.373136
v 0.001542 -0.662622 0.302594
v 0.000014 -0.664256 0.023393
v -0.001459 -0.665786 0.302594
vn -0.1051 -0.9926 -0.0601
vn -0.7937 0.3826 0.4729
vn 0.8380 -0.3068 0.4512
vn -0.0586 -0.9980 -0.0235
vn -0.7196 0.6891 -0.0857
vn -0.9182 -0.3952 -0.0279
vn 0.4511 0.8912 0.0469
vn 0.9511 -0.3052 0.0476
vn -0.8609 -0.5083 -0.0208
vn 0.8580 0.5066 -0.0843
vn 0.1053 0.9943 -0.0157
vn -0.9984 0.0151 -0.0544
vn 0.2046 0.9784 0.0300
vn -0.0913 -0.0468 -0.9947
vn 0.8298 -0.0021 0.5581
vn -0.5164 -0.8516 0.0900
vn 0.9174 -0.3978 -0.0057
vn -0.0412 0.9922 -0.1177
vn 0.5188 0.8547 0.0200
vn -0.1284 -0.9893 -0.0688
vn -0.9710 0.2142 0.1061
vn 0.0500 0.0168 -0.9986
vn 0.0003 -0.0000 -1.0000
vn 0.0101 0.0108 -0.9999
vn 0.2603 -0.9655 0.0020
vn -0.3730 0.9273 -0.0310
vn 0.0814 -0.9950 -0.0582
vn -0.0161 -0.9986 -0.0501
vn 0.1283 -0.9915 -0.0228
vn 0.9999 -0.0108 0.0101
vn -0.0036 -0.0447 0.9990
vn 0.0085 0.9999 -0.0065
vn -0.3594 -0.1891 0.9138
vn 0.0648 -0.7296 0.6808
vn 0.9652 -0.2616 -0.0001
vn 0.9502 0.3116 0.0006
vn 0.9163 -0.4006 -0.0057
vn -0.9898 -0.1421 0.0053
vn -0.4352 0.0067 0.9003
vn 0.3911 -0.9203 0.0017
vn 0.3850 0.9229 -0.0004
vn 0.9085 -0.4179 -0.0024
vn -0.5657 -0.8246 -0.0002
vn -0.5952 0.5987 0.5360
vn 0.5778 0.3383 -0.7428
vn -0.7461 0.0001 0.6658
vn -0.4657 -0.6577 0.5921
vn 0.6579 -0.6525 0.3761
vn 0.4871 0.3182 -0.8133
vn -0.9007 0.4345 0.0001
vn 0.0796 -0.3680 -0.9264
vn -0.0579 0.6857 -0.7256
vn -0.8817 0.1019 -0.4606
vn 0.1868 -0.0024 0.9824
vn 0.1892 -0.0026 0.9819
vn -0.3286 -0.0001 0.9445
vn 0.1036 -0.0019 -0.9946
vn 0.3286 0.0003 -0.9445
vn -0.1979 -0.0000 -0.9802
vn -0.9363 -0.3511 -0.0001
vn 0.3370 -0.3379 -0.8788
vn 0.4649 0.8274 0.3150
vn -0.0071 -0.9479 -0.3186
vn 0.4287 -0.9035 -0.0001
vn 0.6661 0.6912 0.2801
vn 0.0320 -0.6785 -0.7339
vn -0.0030 -0.8225 -0.5688
vn -0.2405 0.6865 -0.6862
vn 0.2624 0.7747 0.5754
vn -0.6148 -0.7886 -0.0098
vn -0.4570 -0.7760 0.4347
vn 0.9917 0.1283 0.0003
vn -0.8676 0.4973 0.0002
vn 0.8454 -0.3550 -0.3992
vn -0.5632 -0.3859 0.7307
vn 0.1245 0.9922 0.0006
vn 0.3116 -0.8798 -0.3590
vn 0.5401 -0.3877 0.7470
vn 0.4985 0.0000 -0.8669
vn -0.4810 -0.0001 -0.8767
vn 0.8233 0.5169 -0.2348
vn -0.9652 0.2616 0.0001
vn -0.2718 -0.9430 0.1923
vn 0.5839 0.7272 -0.3609
vn -0.0180 0.3051 -0.9522
vn -0.1595 0.9035 -0.3978
vn -0.3682 0.3173 -0.8739
vn -0.6937 -0.6634 -0.2805
vn 0.2256 0.5186 0.8247
vn 0.3716 0.3740 0.8497
vn 0.4572 -0.3576 0.8143
vn -0.3268 0.9065 -0.2674
vn -0.2928 -0.8855 0.3607
vn -0.4287 0.9035 0.0001
vn 0.3412 -0.9400 0.0001
vn -0.5021 -0.0001 0.8648
vn -0.3843 -0.2829 0.8788
vn 0.3963 -0.0001 0.9181
vn 0.1979 0.0000 0.9802
vn 0.6012 0.7954 0.0769
vn 0.9569 -0.2903 0.0000
vn 0.2406 0.5222 -0.8182
vn -0.2383 0.0000 0.9712
vn -0.3963 0.0001 -0.9181
vn 0.7745 -0.5393 0.3305
vn -0.9244 0.3814 0.0025
vn 0.4845 -0.6509 -0.5845
vn 0.4630 0.6967 0.5480
vn -0.9610 0.2764 -0.0003
vn 0.9579 -0.2871 0.0002
vn -0.3902 0.6964 -0.6023
vn -0.4795 -0.0001 0.8775
vn 0.1236 -0.0007 0.9923
vn -0.9602 0.2792 0.0020
vn -0.5946 0.8040 -0.0039
vn 0.9957 -0.0929 -0.0009
vn -0.9850 -0.1057 -0.1368
vn 0.0751 -0.5256 -0.8474
vn 0.5817 0.8134 0.0070
vn 0.9850 -0.0016 -0.1726
vn 0.3260 -0.0017 0.9454
vn -0.1236 0.0007 -0.9923
vn 0.9999 -0.0023 0.0098
vn 0.0443 0.9990 0.0001
vn -0.9911 -0.1330 0.0000
vn 0.9220 -0.0001 0.3873
vn -0.7565 -0.3526 0.5508
vn 0.9363 0.3511 0.0001
vn 0.4795 0.0001 -0.8775
vn -0.6706 -0.0010 0.7418
vn -0.8111 0.5849 -0.0000
vn 0.9822 0.1880 0.0001
vn -0.6247 -0.7808 -0.0001
vn 0.1908 -0.0019 -0.9816
vn -0.0018 -1.0000 0.0001
vn 0.9007 -0.4345 -0.0001
vn 0.6378 0.2207 0.7379
vn 0.4163 -0.9092 0.0002
vn 0.9911 0.1330 -0.0000
vn 0.3407 -0.0011 -0.9402
vn 0.6818 -0.0013 0.7315
vn 0.5301 0.0001 -0.8479
vn 0.9926 0.1213 0.0001
vn -0.1868 0.0024 -0.9824
vn 0.8111 -0.5849 0.0000
vn -0.8492 -0.5281 0.0001
vn 0.8492 0.5281 -0.0001
vn -0.9579 0.2871 -0.0002
vn 0.0018 1.0000 -0.0001
vn -0.5937 0.8047 0.0001
vn 0.0345 -0.4243 -0.9049
vn -0.9971 0.0010 -0.0765
vn 0.8676 -0.4973 -0.0002
vn 0.6962 0.4735 -0.5395
vn -0.9711 0.2386 -0.0010
vn -0.9169 0.3056 -0.2566
vn -0.9883 -0.0012 -0.1523
vn -1.0000 0.0003 -0.0098
vn 0.6706 0.0010 -0.7418
vn 0.3228 0.9465 -0.0002
vn 0.0050 -1.0000 0.0001
vn -0.4163 0.9092 -0.0002
vn -0.1908 0.0014 0.9816
vn 0.6501 0.6028 0.4626
vn -0.7297 -0.6838 -0.0002
vn 0.8156 -0.0028 0.5786
vn -0.9822 -0.1880 -0.0001
vn 0.6105 0.5557 -0.5643
vn -0.9917 -0.1283 -0.0003
vn -0.6303 0.2075 0.7481
vn 0.2059 0.8076 -0.5526
vn 0.4878 -0.4066 0.7725
vn 0.9997 0.0220 -0.0065
vn -0.0443 -0.9990 -0.0001
vn -0.9926 -0.1213 -0.0001
vn -0.6707 -0.4064 0.6204
vn 0.1091 -0.0018 0.9940
vn 0.7389 0.6738 0.0043
vn -0.9220 0.0001 -0.3873
vn -0.3549 -0.9349 0.0014
vn -0.3228 -0.9465 0.0002
vn -0.2056 0.9786 -0.0001
vn 0.5021 0.0001 -0.8648
vn 0.7254 -0.6883 0.0001
vn 0.2793 0.6394 0.7163
vn 0.5937 -0.8047 -0.0001
vn -0.6043 -0.5824 -0.5437
vn -0.7254 0.6883 -0.0001
vn -0.7689 0.4342 0.4694
vn -0.0050 1.0000 -0.0001
vn 0.2226 -0.7870 0.5754
vn 0.1878 -0.9822 -0.0004
vn -0.2309 0.6897 0.6862
vn 0.8039 0.0013 -0.5947
vn 0.0474 -0.7011 0.7114
vn -0.4962 0.2763 0.8231
vn -0.2349 -0.2868 -0.9288
vn 0.9264 0.0006 -0.3765
vn -0.3888 0.8579 0.3359
vn -0.1693 -0.3008 -0.9385
vn 0.9447 0.0016 -0.3279
vn 0.3703 0.7199 0.5870
vn 0.7297 0.6838 0.0002
vn 0.9130 0.2056 0.3525
vn -0.8260 -0.2381 -0.5109
vn 0.4395 -0.8982 0.0015
vn 0.0635 0.1998 0.9778
vn -0.8898 -0.4564 -0.0029
vn 0.2056 -0.9786 0.0001
vn -0.9841 -0.0975 0.1488
vn -0.9447 -0.0016 0.3279
vn -0.7554 -0.4376 0.4877
vn 0.5888 -0.7788 -0.2165
vn 0.2782 0.9605 0.0003
vn 0.9871 0.1142 -0.1125
vn -0.4157 0.3537 -0.8379
vn -0.5809 0.7794 0.2347
vn -0.9569 0.2903 -0.0000
vn 0.0712 -0.9447 0.3202
vn -0.6913 0.6375 -0.3401
vn 0.4810 0.0001 0.8767
vn -0.1878 0.9822 0.0004
vn -0.5301 -0.0001 0.8479
vn 0.6247 0.7808 0.0001
vn -0.7484 -0.5544 -0.3640
vn -0.5001 -0.6124 -0.6123
vn 0.2780 -0.7135 -0.6431
vn 0.5463 -0.5693 0.6143
vn -0.1245 -0.9922 -0.0006
vn 0.6470 0.0017 0.7625
vn 0.7461 -0.0001 -0.6658
vn -0.9937 -0.1115 0.0095
vn -0.9932 -0.1160 -0.0017
vn -0.9872 -0.0012 0.1595
vn 0.9927 -0.1206 0.0001
vn -0.9956 0.0932 -0.0017
vn 0.6122 0.7907 0.0050
vn 0.9978 -0.0012 0.0658
vn 0.1982 -0.0002 0.9802
vn -0.9995 -0.0160 -0.0286
vn -0.9998 0.0207 -0.0003
vn -0.7583 0.0005 0.6519
vn -0.9136 0.3224 -0.2476
vn -0.5364 -0.8440 -0.0007
vn 0.9977 -0.0508 0.0454
vn 0.9971 -0.0013 0.0765
vn 0.9842 0.1091 0.1392
vn -0.5535 0.8328 -0.0058
vn -0.7230 0.6908 0.0052
vn -0.2744 -0.9616 -0.0035
vn 0.8497 -0.1181 0.5138
vn -0.9943 0.0694 0.0810
vn -0.9824 -0.1224 -0.1412
vn 0.9514 -0.2552 0.1724
vn -0.8256 -0.2207 0.5193
vn -0.9498 -0.0032 0.3129
vn -0.9984 -0.0550 -0.0103
vn 0.9600 -0.2800 -0.0045
vn 0.9790 0.2038 0.0027
vn -0.9562 0.0003 -0.2926
vn -0.3596 0.9331 -0.0046
vn 0.8283 -0.2934 -0.4773
vn 0.9433 0.0000 -0.3320
vn -0.1286 -0.0008 -0.9917
vn -0.8849 0.0000 -0.4657
vn 0.3607 -0.9327 0.0012
vn 0.3850 -0.9229 0.0018
vn -0.2559 0.0008 -0.9667
vn 0.9045 0.4265 0.0002
vn 0.3984 -0.9172 0.0008
vn -0.5566 0.0001 0.8308
vn -0.1051 0.9945 -0.0040
vn -0.3190 0.9477 -0.0002
vn -0.9745 0.1224 -0.1879
vn -0.9007 0.0014 -0.4343
vn -0.9895 0.0117 -0.1438
vn -0.2280 0.1124 0.9671
vn 0.9498 0.0010 -0.3130
vn 0.2347 -0.9721 -0.0004
vn -0.9045 -0.4265 -0.0002
vn -0.7470 -0.6648 0.0005
vn 0.9852 -0.1325 0.1091
vn 0.7820 0.0010 0.6233
vn 0.0496 -0.9988 -0.0001
vn -0.4985 -0.0000 0.8669
vn 0.7470 0.6648 -0.0005
vn 0.8849 -0.0000 0.4657
vn -0.4962 -0.0001 0.8682
vn -0.1499 -0.9887 -0.0006
vn -0.3412 0.9400 -0.0001
vn 0.8121 -0.0010 -0.5835
vn 0.2383 -0.0000 -0.9712
vn 0.9833 -0.1822 -0.0009
vn 0.3133 0.9497 -0.0011
vn -0.6163 -0.0024 0.7875
vn -0.9981 -0.0623 0.0002
vn 0.9610 -0.2764 0.0003
vn -0.8774 -0.4797 0.0027
vn -0.6818 -0.0008 -0.7315
vn -0.8206 -0.0019 -0.5715
vn -0.0569 0.0000 -0.9984
vn -0.2347 0.9721 0.0004
vn 0.9476 -0.2134 -0.2377
s off
f 17//1 7//1 21//1
f 8//2 9//2 26//2
f 8//3 10//3 9//3
f 1//4 2//4 3//4
f 5//5 6//5 7//5
f 3//6 4//6 5//6
f 19//7 2//7 1//7
f 7//8 4//8 19//8
f 20//9 13//9 21//9
f 21//10 18//10 20//10
f 7//11 6//11 21//11
f 16//12 13//12 20//12 22//12
f 21//13 6//13 18//13
f 11//14 26//14 10//14
f 8//15 11//15 10//15
f 3//16 2//16 4//16
f 7//17 17//17 4//17
f 24//18 11//18 8//18 22//18
f 19//19 4//19 2//19
f 21//20 13//20 17//20
f 5//21 4//21 6//21
f 3//22 5//22 7//22 19//22 1//22
f 20//23 23//23 22//23
f 23//24 24//24 22//24
f 24//25 25//25 12//25
f 12//26 25//26 14//26 11//26 24//26
f 25//27 24//27 10//27
f 9//28 10//28 24//28 23//28 15//28 25//28 26//28
f 25//29 10//29 26//29
f 23//30 20//30 18//30 15//30
f 25//31 15//31 18//31 6//31 4//31 17//31 13//31 16//31 14//31
f 16//32 22//32 8//32 26//32 11//32 14//32
f 39//33 40//33 44//33
f 115//34 114//34 79//34
f 189//35 188//35 187//35
f 113//36 76//36 125//36
f 41//37 40//37 37//37
f 44//38 42//38 46//38
f 38//39 45//39 46//39
f 48//40 45//40 38//40
f 43//41 39//41 44//41
f 120//42 108//42 117//42
f 47//43 38//43 36//43
f 55//44 54//44 50//44
f 86//45 109//45 85//45
f 142//46 143//46 144//46
f 92//47 84//47 89//47
f 105//48 92//48 108//48
f 112//49 116//49 104//49
f 178//50 179//50 180//50
f 64//51 71//51 119//51
f 91//52 90//52 85//52
f 75//53 78//53 73//53
f 259//54 261//54 260//54
f 100//55 99//55 82//55
f 102//56 103//56 95//56
f 103//57 73//57 104//57
f 103//58 102//58 73//58
f 136//59 137//59 138//59
f 190//60 191//60 192//60
f 124//61 119//61 71//61
f 128//62 59//62 54//62
f 70//63 69//63 117//63
f 159//64 158//64 157//64
f 118//65 63//65 67//65
f 119//66 69//66 64//66
f 129//67 57//67 60//67
f 78//68 81//68 112//68
f 68//69 63//69 121//69
f 46//70 42//70 43//70
f 80//71 72//71 79//71
f 204//72 202//72 203//72
f 168//73 166//73 167//73
f 120//74 119//74 124//74
f 72//75 75//75 82//75
f 239//76 240//76 238//76
f 120//77 117//77 69//77
f 115//78 79//78 82//78
f 135//79 134//79 133//79
f 253//80 254//80 255//80
f 107//81 110//81 85//81
f 187//82 188//82 189//82
f 83//83 80//83 114//83
f 76//84 113//84 81//84
f 73//85 112//85 104//85
f 74//86 77//86 76//86
f 86//87 85//87 90//87
f 60//88 53//88 51//88
f 121//89 122//89 62//89
f 55//90 52//90 126//90
f 106//91 95//91 84//91
f 76//92 81//92 74//92
f 94//93 92//93 89//93
f 157//94 158//94 159//94
f 209//95 210//95 208//95
f 32//96 30//96 31//96
f 95//97 93//97 84//97
f 229//98 231//98 230//98
f 138//99 137//99 136//99
f 36//100 38//100 37//100
f 174//101 172//101 173//101
f 85//102 109//102 107//102
f 227//103 228//103 226//103
f 231//104 229//104 230//104
f 111//105 83//105 114//105
f 41//106 36//106 39//106
f 119//107 120//107 69//107
f 118//108 123//108 121//108
f 175//109 176//109 177//109
f 214//110 215//110 216//110
f 74//111 81//111 78//111
f 140//112 141//112 139//112
f 34//113 33//113 35//113
f 43//114 49//114 46//114
f 49//115 38//115 46//115
f 47//116 41//116 37//116
f 56//117 58//117 57//117
f 48//118 47//118 49//118
f 49//119 37//119 38//119
f 123//120 124//120 97//120
f 82//121 99//121 115//121
f 34//122 35//122 33//122
f 130//123 98//123 132//123
f 217//124 219//124 218//124
f 248//125 247//125 249//125
f 258//126 256//126 257//126
f 93//127 87//127 84//127
f 190//128 192//128 191//128
f 140//129 139//129 141//129
f 28//130 27//130 29//130
f 212//131 213//131 211//131
f 185//132 184//132 186//132
f 196//133 198//133 197//133
f 127//134 132//134 96//134
f 146//135 147//135 145//135
f 180//136 179//136 178//136
f 126//137 52//137 130//137
f 150//138 148//138 149//138
f 246//139 245//139 244//139
f 100//140 109//140 86//140
f 95//141 101//141 102//141
f 225//142 223//142 224//142
f 155//143 156//143 154//143
f 261//144 259//144 260//144
f 213//145 212//145 211//145
f 183//146 182//146 181//146
f 249//139 247//139 248//139
f 183//147 181//147 182//147
f 214//148 216//148 215//148
f 146//149 145//149 147//149
f 165//150 163//150 164//150
f 129//151 127//151 56//151
f 103//152 99//152 87//152
f 166//153 168//153 167//153
f 113//154 116//154 112//154
f 50//155 77//155 74//155
f 90//156 87//156 86//156
f 98//157 66//157 68//157
f 68//158 132//158 98//158
f 28//159 29//159 27//159
f 193//160 195//160 194//160
f 160//161 161//161 162//161
f 150//162 149//162 148//162
f 62//163 96//163 132//163
f 54//164 126//164 128//164
f 199//165 200//165 201//165
f 101//166 95//166 106//166
f 185//167 186//167 184//167
f 81//168 113//168 112//168
f 202//169 204//169 203//169
f 62//170 68//170 121//170
f 85//171 110//171 88//171
f 105//172 106//172 84//172
f 125//173 76//173 128//173
f 219//174 217//174 218//174
f 154//175 156//175 155//175
f 79//176 72//176 82//176
f 52//177 131//177 98//177
f 128//178 76//178 59//178
f 256//179 258//179 257//179
f 53//180 80//180 51//180
f 193//181 194//181 195//181
f 237//182 235//182 236//182
f 30//183 32//183 31//183
f 267//184 266//184 265//184
f 54//185 55//185 126//185
f 165//186 164//186 163//186
f 64//187 69//187 61//187
f 265//188 266//188 267//188
f 50//189 58//189 55//189
f 160//190 162//190 161//190
f 80//191 79//191 114//191
f 244//125 245//125 246//125
f 207//192 205//192 206//192
f 65//193 63//193 68//193
f 103//194 104//194 116//194
f 105//195 84//195 92//195
f 58//196 52//196 55//196
f 56//197 57//197 129//197
f 109//198 100//198 106//198
f 50//199 54//199 59//199
f 64//200 66//200 71//200
f 263//201 264//201 262//201
f 121//202 63//202 118//202
f 201//203 200//203 199//203
f 122//204 121//204 123//204
f 66//205 64//205 61//205
f 111//206 125//206 51//206
f 39//207 37//207 40//207
f 151//162 153//162 152//162
f 53//208 74//208 80//208
f 237//209 236//209 235//209
f 151//138 152//138 153//138
f 74//210 72//210 80//210
f 263//211 262//211 264//211
f 89//212 84//212 87//212
f 51//213 125//213 60//213
f 37//214 49//214 47//214
f 106//215 107//215 109//215
f 73//216 78//216 112//216
f 67//217 63//217 65//217
f 173//218 172//218 174//218
f 241//209 242//209 243//209
f 241//182 243//182 242//182
f 92//219 94//219 108//219
f 91//220 85//220 88//220
f 253//221 255//221 254//221
f 207//222 206//222 205//222
f 224//223 223//223 225//223
f 197//224 198//224 196//224
f 70//225 61//225 69//225
f 57//226 53//226 60//226
f 129//227 60//227 125//227
f 111//228 114//228 115//228
f 239//229 238//229 240//229
f 52//230 98//230 130//230
f 143//231 142//231 144//231
f 61//232 70//232 65//232
f 89//233 65//233 70//233
f 93//234 103//234 87//234
f 118//235 107//235 108//235 120//235 123//235
f 36//236 41//236 47//236
f 39//237 43//237 42//237
f 103//238 116//238 115//238
f 96//239 62//239 122//239
f 89//240 87//240 91//240
f 89//241 91//241 65//241
f 131//242 52//242 58//242 97//242
f 87//243 90//243 91//243
f 38//244 47//244 48//244
f 111//245 115//245 116//245 113//245
f 115//246 99//246 103//246
f 126//247 130//247 128//247
f 110//248 107//248 118//248
f 77//249 50//249 59//249
f 44//250 40//250 42//250
f 39//251 36//251 37//251
f 65//252 68//252 61//252
f 58//253 50//253 57//253
f 107//254 106//254 105//254 108//254
f 72//255 74//255 75//255
f 101//256 100//256 75//256
f 50//257 53//257 57//257
f 45//258 49//258 43//258
f 44//259 45//259 43//259
f 56//260 97//260 58//260
f 39//261 42//261 41//261
f 128//262 130//262 127//262 129//262
f 130//263 132//263 127//263
f 131//264 71//264 66//264 98//264
f 221//265 220//265 222//265
f 40//266 41//266 42//266
f 45//267 48//267 49//267
f 99//268 100//268 86//268 87//268
f 171//269 170//269 169//269
f 83//270 111//270 51//270
f 82//271 75//271 100//271
f 76//272 77//272 59//272
f 67//273 65//273 91//273 88//273
f 74//274 78//274 75//274
f 75//275 73//275 101//275
f 61//276 68//276 66//276
f 45//277 44//277 46//277
f 100//278 101//278 106//278
f 233//279 232//279 234//279
f 169//280 170//280 171//280
f 251//281 250//281 252//281
f 128//282 129//282 125//282
f 97//283 96//283 122//283 123//283
f 70//284 117//284 108//284 94//284
f 135//285 133//285 134//285
f 252//286 250//286 251//286
f 220//287 221//287 222//287
f 68//288 62//288 132//288
f 80//289 83//289 51//289
f 210//290 209//290 208//290
f 131//291 97//291 124//291 71//291
f 226//292 228//292 227//292
f 111//293 113//293 125//293
f 118//294 67//294 88//294 110//294
f 103//295 93//295 95//295
f 74//296 53//296 50//296
f 176//297 175//297 177//297
f 70//298 94//298 89//298
f 102//299 101//299 73//299
f 96//300 97//300 56//300
f 56//301 127//301 96//301
f 233//302 234//302 232//302
f 120//303 124//303 123//303
