####
#
# OBJ File Generated by Meshlab
#
####
# Object legr_heel_joint.obj
#
# Vertices: 215
# Faces: 442
#
####
vn -4.069851 -1.326239 -2.421723
v -0.004992 0.020667 0.001126
vn -4.069910 1.387497 2.389904
v -0.004989 0.021101 0.011743
vn -4.090674 2.757825 0.003992
v -0.004989 0.020349 0.013041
vn 3.928810 2.900682 0.002172
v -0.000990 0.020347 0.013040
vn -1.399043 -1.462521 1.559503
v -0.005007 -0.021994 0.028977
vn -4.071225 1.395147 -2.383569
v -0.004989 0.021097 0.014341
vn 3.903390 2.075963 -2.035511
v -0.000989 0.020785 0.014101
vn -4.174721 1.376064 -2.353892
v -0.004992 0.019417 0.001124
vn -2.356010 1.115849 -2.679602
v -0.004993 0.022059 -0.010953
vn -4.103171 -1.403346 2.363338
v -0.004989 0.022601 0.011745
vn 0.346259 -0.410479 6.015519
v -0.000989 0.021849 0.011543
vn -4.087396 -2.754492 0.066839
v -0.004992 0.021293 0.000044
vn 3.905203 2.070156 2.047932
v -0.000990 0.020788 0.011980
vn -2.355395 2.684512 -1.106613
v -0.004991 0.025054 -0.007949
vn -4.153362 -2.730562 -0.003076
v -0.004988 0.023349 0.013045
vn 3.926395 -2.055115 2.048504
v 0.007011 0.022905 0.011982
vn 3.534816 -0.608119 3.020588
v 0.007010 0.021845 0.011541
vn -1.397606 1.459394 1.563736
v -0.004984 0.025001 0.029045
vn -4.103437 -1.398239 -2.366830
v -0.004988 0.022597 0.014343
vn 3.925903 -2.904588 -0.004682
v 0.007011 0.023343 0.013043
vn 0.344720 -0.393721 -6.015736
v -0.000989 0.021845 0.014542
vn 3.925668 -2.051411 -2.056684
v 0.007011 0.022902 0.014103
vn 3.828725 -3.271340 0.762231
v -0.002992 0.021292 0.000044
vn -4.175563 -1.373360 2.355775
v -0.004992 0.020670 -0.001039
vn 3.693397 -1.460385 4.044984
v -0.002798 0.020702 -0.001020
vn 3.322647 -0.901207 -4.615470
v -0.002779 0.020614 0.001153
vn 3.521732 -2.775729 -2.712649
v -0.002922 0.021113 0.000687
vn -4.084454 2.758484 -0.064899
v -0.004993 0.018794 0.000041
vn 3.653744 1.327649 -4.139610
v -0.002798 0.019381 0.001103
vn -4.067905 1.328580 2.423841
v -0.004993 0.019420 -0.001041
vn 3.869321 3.171890 -0.574091
v -0.002993 0.018793 0.000040
vn -3.928678 -2.047571 -2.054760
v -0.004994 0.014455 0.002448
vn -3.537536 -3.019813 -0.604982
v -0.004994 0.015043 0.001035
vn 3.394500 0.874626 4.520485
v -0.002780 0.019469 -0.001068
vn 3.589557 2.667912 2.530870
v -0.002923 0.018971 -0.000602
vn -1.572353 -1.567492 -1.573169
v -0.004997 0.015060 -0.010963
vn -1.573177 -1.563390 -4.713746
v -0.003997 0.015059 -0.010963
vn 1.545595 1.551986 -4.660970
v 0.002006 0.022056 -0.010954
vn -2.751689 -3.020383 -0.605298
v -0.003995 0.015042 0.001035
vn -3.535113 -0.594937 -3.021935
v -0.004995 0.013040 0.003032
vn -2.358612 -2.049504 -2.056195
v -0.003995 0.014454 0.002448
vn -3.534431 0.608359 -3.020763
v -0.004996 0.011040 0.003029
vn -2.749264 -0.595694 -3.021799
v -0.003995 0.013039 0.003032
vn -3.924542 2.056914 -2.049661
v -0.004997 0.009627 0.002441
vn -2.748782 0.606983 -3.021124
v -0.003996 0.011040 0.003029
vn -3.534523 3.024950 -0.597014
v -0.004997 0.009043 0.001027
vn -2.354404 2.057421 -2.050287
v -0.003997 0.009626 0.002441
vn -1.570846 1.573637 -1.568699
v -0.005000 0.009060 -0.010972
vn -2.749950 3.024242 -0.595448
v -0.003997 0.009043 0.001026
vn -3.537535 -3.019094 -0.604889
v -0.005005 -0.005955 0.001005
vn -1.573956 -1.568692 -1.573292
v -0.005007 -0.005938 -0.010993
vn -1.571300 1.578895 -4.709116
v -0.004000 0.009060 -0.010972
vn -3.928987 -2.047693 -2.052829
v -0.005005 -0.006543 0.002418
vn -1.574420 -1.562261 -4.714034
v -0.004007 -0.005939 -0.010994
vn -2.751691 -3.019980 -0.605125
v -0.004005 -0.005956 0.001005
vn -3.537076 -0.595699 -3.021854
v -0.005005 -0.007958 0.003002
vn -2.358253 -2.048988 -2.056407
v -0.004005 -0.006544 0.002418
vn -3.534431 0.608033 -3.020379
v -0.005006 -0.009958 0.002999
vn -2.752231 -0.596475 -3.021538
v -0.004005 -0.007958 0.003001
vn -3.926625 2.057697 -2.048108
v -0.005007 -0.011371 0.002411
vn -2.748717 0.606743 -3.019554
v -0.004006 -0.009958 0.002999
vn -3.534434 3.022591 -0.594629
v -0.005008 -0.011955 0.000996
vn -2.356560 2.056313 -2.048682
v -0.004007 -0.011371 0.002411
vn -1.569151 1.573766 -1.567747
v -0.005010 -0.011937 -0.011002
vn -2.748748 3.024541 -0.596376
v -0.004008 -0.011955 0.000996
vn -2.357466 -1.105669 -2.682375
v -0.005014 -0.018937 -0.011012
vn -1.570711 1.578093 -4.710452
v -0.004010 -0.011938 -0.011002
vn -2.357615 -2.679161 -1.114041
v -0.005014 -0.021941 -0.008017
vn 1.784160 -3.029278 -2.466097
v 0.004985 -0.021946 -0.008019
vn 1.544087 -1.539801 -4.665284
v 0.001986 -0.018940 -0.011014
vn 2.901183 -3.928372 -0.006119
v -0.003013 -0.021953 -0.000019
vn 2.050118 -3.930653 2.045926
v -0.002135 -0.021951 -0.002140
vn 0.006816 -3.907437 -2.912008
v -0.000013 -0.021959 0.002980
vn 3.086671 -2.881836 0.401747
v 0.006991 -0.021990 0.021976
vn 2.628421 -2.622853 1.514225
v 0.006054 -0.021994 0.025476
vn 1.281987 -2.470722 2.668388
v 0.003492 -0.021997 0.028038
vn 2.048650 -3.924336 -2.058240
v -0.002134 -0.021957 0.002102
vn 0.002821 3.922750 2.907999
v 0.000009 0.025045 -0.002951
vn 2.682190 2.356438 -1.107834
v 0.007008 0.025046 -0.005952
vn 1.786947 3.034098 -2.457484
v 0.005008 0.025050 -0.007951
vn 1.284664 2.461732 2.676369
v 0.003515 0.024998 0.028106
vn 2.050351 3.896019 2.063993
v -0.002112 0.025045 -0.002072
vn 2.919901 3.860070 0.048066
v -0.002990 0.025042 0.000049
vn 2.680868 -2.355879 -1.114661
v 0.006985 -0.021949 -0.006020
vn 2.384135 2.270725 1.837475
v 0.006997 -0.000848 0.003297
vn 3.904941 2.256711 1.843938
v 0.004997 -0.000847 0.003298
vn 3.989000 2.138514 1.903989
v 0.006997 -0.000258 0.001418
vn 2.298230 2.139642 1.903577
v 0.004997 -0.000257 0.001419
vn 3.627770 2.256254 2.061365
v 0.006995 -0.006003 0.006425
vn 2.568763 2.001770 2.281941
v 0.004996 -0.005448 0.005843
vn 3.715406 2.797085 1.214041
v 0.006995 -0.007638 0.009000
vn 2.481355 2.953217 0.666911
v 0.004995 -0.008122 0.010371
vn 3.686137 2.972617 -0.567244
v 0.006996 -0.008280 0.014993
vn 2.565801 2.888085 -0.910762
v 0.004996 -0.008129 0.015627
vn 3.566437 2.231372 -2.104570
v 0.006998 -0.005359 0.020267
vn 2.671348 2.195411 -2.108125
v 0.004999 -0.005468 0.020162
vn 4.300285 1.049108 -2.047084
v 0.007000 -0.002851 0.022004
vn -2.063113 -3.907742 -2.053620
v 0.002108 -0.021959 0.002101
vn 3.988392 -0.006577 2.863927
v 0.006998 0.001539 0.000613
vn -0.001888 -3.931522 2.897045
v -0.000014 -0.021950 -0.003019
vn -2.053869 -3.928375 2.046808
v 0.002107 -0.021953 -0.002140
vn -2.904137 -3.925681 -0.004789
v 0.002986 -0.021956 -0.000020
vn 3.092390 2.885490 0.401434
v 0.007014 0.025005 0.022044
vn -2.900219 3.929234 0.006196
v 0.003010 0.025039 0.000048
vn 3.985676 -2.149347 1.896341
v 0.006999 0.003333 0.001424
vn -2.050229 3.924684 2.059593
v 0.002130 0.025042 -0.002073
vn 3.761143 -2.439295 -1.559762
v 0.007005 0.009561 0.018955
vn 1.961697 -1.448765 -2.174595
v 0.007005 0.011404 0.014525
vn 3.533886 -0.598232 -3.023167
v 0.007011 0.021841 0.014541
vn -2.060576 3.915215 -2.042942
v 0.002131 0.025036 0.002169
vn 0.010387 3.915754 -2.900275
v 0.000010 0.025036 0.003048
vn 2.036530 3.866636 -2.088787
v -0.002111 0.025038 0.002170
vn 2.626938 2.627379 1.528882
v 0.006077 0.025001 0.025544
vn 3.569743 0.000482 -1.277643
v 0.006122 0.001503 0.025410
vn 2.133141 -1.951104 -1.067534
v 0.006967 0.003889 0.022725
vn 3.076527 -1.788345 0.617821
v 0.006791 0.003797 0.023725
vn 3.466121 -2.022858 -0.791449
v 0.006496 0.003278 0.024628
vn 2.430335 -2.082866 -2.155755
v 0.005005 0.008892 0.019768
vn 3.998113 -2.326800 -1.718877
v 0.005004 0.003890 0.022726
vn 1.172918 -1.436108 -5.335039
v 0.005006 0.011405 0.014526
vn 4.114888 -1.296686 -2.454977
v -0.000996 0.007846 0.014522
vn 3.730270 -2.223578 2.023967
v 0.007003 0.008911 0.006277
vn 2.015706 -1.421476 2.245412
v 0.007005 0.011409 0.011526
vn 1.125202 -1.425990 5.387252
v 0.005005 0.011410 0.011526
vn 2.408706 -2.304465 1.814582
v 0.007000 0.003917 0.003304
vn 2.550687 -2.223082 2.024625
v 0.005003 0.008912 0.006277
vn 3.874027 -2.305684 1.815064
v 0.005000 0.003918 0.003305
vn 2.295227 -2.147367 1.896374
v 0.004999 0.003334 0.001424
vn 2.297755 -0.005620 2.864800
v 0.004998 0.001540 0.000614
vn -2.830178 0.793224 0.483664
v 0.002017 0.001362 0.002233
vn 2.857960 -1.641165 -4.027571
v -0.000001 0.002006 0.003015
vn -2.465434 -2.372227 -0.510022
v 0.001859 0.002009 0.002368
vn -1.746478 -2.982091 -4.372545
v 0.001130 0.002307 0.002794
vn 0.729124 -2.590156 -4.208209
v 0.000199 0.002338 0.003009
vn 4.160638 0.374397 -1.971497
v -0.000274 0.001535 0.003002
vn 3.202827 -1.668374 -2.747248
v -0.000256 0.001580 0.003004
vn -4.189053 -1.361974 2.355419
v -0.004008 -0.008316 -0.009080
vn -4.186761 2.722706 0.004436
v -0.004009 -0.010192 -0.008000
vn -4.188472 1.366901 -2.354014
v -0.004008 -0.009569 -0.006917
vn -4.188412 1.358906 2.357395
v -0.004009 -0.009566 -0.009082
vn -4.189481 -2.718102 -0.003105
v -0.004008 -0.007693 -0.007997
vn -4.188661 -1.362492 2.352939
v -0.003998 0.012682 -0.009049
vn -4.188548 2.722480 0.004789
v -0.003998 0.010805 -0.007970
vn -4.187780 1.364030 -2.354125
v -0.003998 0.011429 -0.006887
vn -4.187090 1.358312 2.360516
v -0.003998 0.011432 -0.009051
vn -4.189770 -2.719473 -0.002720
v -0.003997 0.013305 -0.007966
vn 2.863705 1.642585 -4.032560
v -0.000001 0.001071 0.003014
vn 3.028306 1.746779 -3.844288
v -0.000253 0.001492 0.003004
vn 1.195708 2.320866 -4.183611
v 0.000198 0.000739 0.003007
vn -1.136239 3.384736 -2.529812
v 0.001039 0.000760 0.002827
vn -2.065708 2.945528 -1.185765
v 0.001638 0.000904 0.002526
vn 2.123444 2.018362 -1.181912
v 0.006965 -0.000876 0.022718
vn 3.238169 2.068916 0.539086
v 0.006789 -0.000787 0.023718
vn 3.463371 2.062092 -0.753043
v 0.006495 -0.000271 0.024622
vn 2.151078 -4.293291 -1.026983
v 0.000199 0.002338 0.003015
vn 4.177847 -0.035255 0.168794
v -0.000282 0.001539 0.003014
vn 1.850444 -1.910502 -3.322647
v 0.000199 0.001937 0.003708
vn 1.851752 -1.923133 3.316388
v 0.000203 0.001911 0.022319
vn 1.854553 1.913045 3.325067
v 0.000203 0.001111 0.022318
vn 4.364057 -0.000761 -0.000003
v -0.000278 0.001510 0.023011
vn 2.468800 2.906623 -0.535739
v 0.000198 0.000738 0.003013
vn 1.855497 1.923774 -3.316255
v 0.000199 0.001137 0.003706
vn 1.854453 3.834889 0.005138
v 0.000203 0.000710 0.023010
vn 1.853395 1.921290 -3.319349
v 0.000203 0.001109 0.023703
vn 4.146587 2.731630 -0.022233
v 0.004998 0.000736 0.003012
vn 1.850954 -1.914274 -3.321757
v 0.000203 0.001909 0.023704
vn 4.103857 1.367759 2.382914
v 0.004998 0.001137 0.002320
vn 4.145812 -1.394083 2.351539
v 0.004999 0.001937 0.002321
vn 2.426927 -2.107517 -2.003625
v 0.005004 0.003300 0.024605
vn 4.029562 2.288120 -1.734379
v 0.005001 -0.000875 0.022719
vn 2.429427 2.111722 -1.997489
v 0.005002 -0.000291 0.024599
vn 2.295861 0.003846 -2.865605
v 0.005003 0.001503 0.025410
vn 4.115500 -1.304820 2.451118
v -0.000996 0.007851 0.011522
vn 2.414048 -1.688445 2.402911
v -0.000998 0.005259 0.007694
vn 2.413489 -1.681328 -2.408708
v -0.000996 0.005243 0.018343
vn 2.166120 -1.297308 -2.455057
v 0.005004 0.007843 0.014521
vn 2.415009 0.336065 2.915973
v -0.001001 0.000778 0.006557
vn 2.414115 0.344655 -2.916281
v -0.000998 0.000759 0.019467
vn 3.868187 0.342877 -2.917236
v 0.005001 0.000758 0.019466
vn 3.867536 -1.682634 -2.408741
v 0.005003 0.005242 0.018341
vn 2.416344 2.189806 1.954960
v -0.001002 -0.003324 0.008686
vn 2.415418 2.195781 -1.949257
v -0.001000 -0.003337 0.017326
vn 3.869295 2.194357 -1.949978
v 0.004999 -0.003339 0.017326
vn 2.415442 2.934513 0.003945
v -0.001002 -0.004975 0.013003
vn 3.869579 2.934558 0.002683
v 0.004997 -0.004977 0.013004
vn 3.869877 2.189408 1.954581
v 0.004997 -0.003328 0.008686
vn 3.869512 0.335468 2.915553
v 0.004999 0.000775 0.006556
vn 3.868249 -1.689148 2.402979
v 0.005001 0.005256 0.007693
vn 2.167158 -1.304110 2.451304
v 0.005003 0.007848 0.011521
vn 4.187356 -1.360574 -2.358527
v 0.005003 0.001906 0.023703
vn 4.188625 -1.365953 2.352685
v 0.005003 0.001908 0.022318
vn 4.188056 -2.723442 -0.003917
v 0.005003 0.002307 0.023011
vn 4.190891 2.718070 0.002916
v 0.005002 0.000707 0.023009
vn 4.189095 1.361600 -2.356460
v 0.005002 0.001106 0.023702
vn 4.189784 1.353719 2.357975
v 0.005002 0.001108 0.022317
vn 4.188518 1.360480 -2.356832
v 0.004998 0.001135 0.003705
vn 4.186562 -1.359831 -2.359416
v 0.004999 0.001935 0.003706
vn 4.188061 -2.722506 -0.006558
v 0.004999 0.002336 0.003015
vn 1.852452 -3.837711 -0.005505
v 0.000203 0.002309 0.023012
vn -4.190155 -1.354740 -2.357908
v -0.003997 0.012679 -0.006885
vn -1.855315 -3.835502 -0.006136
v 0.002002 0.013302 -0.007967
vn -1.852974 -1.919713 3.316253
v 0.002002 0.012679 -0.009051
vn -1.854180 -1.912137 -3.323421
v 0.002002 0.012676 -0.006886
vn -1.853622 1.922486 -3.318376
v 0.002002 0.011426 -0.006888
vn -1.850376 3.834077 0.006213
v 0.002001 0.010802 -0.007971
vn -1.852442 1.914822 3.325747
v 0.002001 0.011429 -0.009052
vn -4.190556 -1.355852 -2.356229
v -0.004008 -0.008319 -0.006915
vn -1.856017 -3.833754 -0.004170
v 0.001992 -0.007696 -0.007998
vn -1.853421 -1.922089 3.318733
v 0.001991 -0.008319 -0.009081
vn -1.854813 -1.910806 -3.320863
v 0.001992 -0.008322 -0.006916
vn -1.852958 1.923331 -3.317506
v 0.001991 -0.009572 -0.006918
vn -1.852277 3.835344 0.004801
v 0.001991 -0.010195 -0.008001
vn -1.851539 1.912737 3.322093
v 0.001991 -0.009569 -0.009083
vn -4.365693 0.001779 0.000313
v 0.002753 0.012052 -0.007969
vn -4.368006 0.002100 0.001589
v 0.002742 -0.008946 -0.008000
# 215 vertices, 0 vertices normals

f 13//13 2//2 3//3
f 155//155 157//157 131//131
f 75//75 74//74 97//97
f 13//13 11//11 2//2
f 15//15 20//20 22//22
f 15//15 10//10 16//16
f 3//3 6//6 7//7
f 21//21 7//7 6//6
f 28//28 31//31 35//35
f 8//8 29//29 31//31
f 27//27 26//26 1//1
f 90//90 89//89 85//85
f 8//8 1//1 26//26
f 35//35 34//34 30//30
f 144//144 200//200 203//203
f 56//56 58//58 5//5
f 68//68 69//69 100//100
f 38//38 9//9 14//14
f 68//68 66//66 70//70
f 207//207 141//141 208//208
f 60//60 63//63 65//65
f 40//40 43//43 45//45
f 190//190 169//169 172//172
f 110//110 104//104 102//102
f 78//78 82//82 72//72
f 54//54 67//67 140//140
f 33//33 39//39 41//41
f 168//168 132//132 130//130
f 206//206 145//145 143//143
f 118//118 107//107 115//115
f 27//27 1//1 12//12
f 94//94 92//92 185//185
f 96//96 97//97 95//95
f 91//91 89//89 90//90
f 95//95 93//93 94//94
f 99//99 105//105 128//128
f 85//85 87//87 88//88
f 5//5 73//73 74//74
f 112//112 103//103 111//111
f 107//107 118//118 120//120
f 34//34 35//35 72//72
f 147//147 148//148 162//162
f 76//76 81//81 18//18
f 144//144 204//204 205//205
f 194//194 193//193 163//163
f 196//196 165//165 161//161
f 87//87 99//99 129//129
f 191//191 158//158 159//159
f 194//194 164//164 166//166
f 139//139 211//211 212//212
f 151//151 150//150 165//165
f 78//78 106//106 80//80
f 24//24 30//30 34//34
f 24//24 25//25 23//23
f 152//152 97//97 96//96
f 171//171 154//154 153//153
f 145//145 206//206 202//202
f 213//213 140//140 138//138
f 9//9 36//36 30//30
f 55//55 50//50 51//51
f 79//79 84//84 70//70
f 110//110 98//98 130//130
f 114//114 154//154 171//171
f 150//150 149//149 161//161
f 26//26 27//27 112//112
f 158//158 160//160 159//159
f 123//123 124//124 126//126
f 163//163 160//160 164//164
f 164//164 160//160 166//166
f 167//167 130//130 151//151
f 168//168 133//133 132//132
f 168//168 134//134 133//133
f 155//155 134//134 168//168
f 21//21 19//19 22//22
f 156//156 135//135 136//136
f 156//156 148//148 135//135
f 119//119 116//116 169//169
f 17//17 122//122 79//79
f 96//96 170//170 152//152
f 93//93 91//91 92//92
f 114//114 172//172 169//169
f 135//135 148//148 77//77
f 121//121 175//175 173//173
f 187//187 177//177 181//181
f 183//183 182//182 178//178
f 179//179 178//178 175//175
f 185//185 184//184 182//182
f 186//186 181//181 184//184
f 180//180 175//175 121//121
f 188//188 174//174 177//177
f 56//56 59//59 61//61
f 11//11 124//124 17//17
f 106//106 78//78 100//100
f 146//146 142//142 202//202
f 44//44 42//42 45//45
f 106//106 101//101 102//102
f 32//32 41//41 43//43
f 62//62 65//65 67//67
f 140//140 213//213 209//209
f 60//60 58//58 61//61
f 49//49 143//143 52//52
f 65//65 55//55 207//207
f 86//86 165//165 196//196
f 50//50 55//55 57//57
f 46//46 49//49 52//52
f 81//81 76//76 75//75
f 197//197 157//157 155//155
f 189//189 173//173 174//174
f 155//155 168//168 198//198
f 159//159 160//160 163//163
f 190//190 166//166 199//199
f 191//191 192//192 199//199
f 195//195 159//159 163//163
f 122//122 126//126 127//127
f 39//39 33//33 36//36
f 39//39 37//37 146//146
f 38//38 70//70 54//54
f 196//196 162//162 157//157
f 46//46 44//44 47//47
f 200//200 146//146 201//201
f 8//8 3//3 2//2
f 105//105 125//125 127//127
f 139//139 207//207 210//210
f 53//53 57//57 59//59
f 204//204 214//214 205//205
f 206//206 205//205 214//214
f 203//203 214//214 204//204
f 201//201 214//214 203//203
f 202//202 214//214 201//201
f 206//206 214//214 202//202
f 211//211 215//215 212//212
f 213//213 212//212 215//215
f 210//210 215//215 211//211
f 208//208 215//215 210//210
f 209//209 215//215 208//208
f 213//213 215//215 209//209
f 162//162 156//156 157//157
f 166//166 160//160 199//199
f 158//158 199//199 160//160
f 137//137 209//209 208//208
f 4//4 13//13 3//3
f 131//131 134//134 155//155
f 156//156 136//136 131//131
f 131//131 157//157 156//156
f 117//117 103//103 113//113
f 97//97 152//152 153//153
f 114//114 117//117 113//113
f 97//97 153//153 154//154
f 114//114 113//113 75//75
f 75//75 97//97 154//154
f 154//154 114//114 75//75
f 19//19 15//15 22//22
f 20//20 15//15 16//16
f 4//4 3//3 7//7
f 30//30 28//28 35//35
f 28//28 8//8 31//31
f 86//86 90//90 85//85
f 29//29 8//8 26//26
f 204//204 144//144 203//203
f 1//1 2//2 10//10
f 32//32 8//8 28//28
f 12//12 10//10 15//15
f 3//3 8//8 32//32
f 12//12 1//1 10//10
f 3//3 32//32 40//40
f 14//14 12//12 15//15
f 42//42 3//3 40//40
f 14//14 9//9 12//12
f 44//44 3//3 42//42
f 18//18 14//14 15//15
f 53//53 3//3 44//44
f 18//18 15//15 19//19
f 50//50 48//48 51//51
f 18//18 19//19 6//6
f 50//50 46//46 48//48
f 53//53 56//56 3//3
f 60//60 68//68 5//5
f 5//5 18//18 6//6
f 44//44 46//46 50//50
f 62//62 64//64 66//66
f 44//44 50//50 53//53
f 68//68 62//62 66//66
f 5//5 3//3 56//56
f 60//60 62//62 68//68
f 5//5 6//6 3//3
f 58//58 60//60 5//5
f 84//84 102//102 101//101
f 77//77 73//73 5//5
f 69//69 101//101 100//100
f 71//71 77//77 5//5
f 68//68 100//100 72//72
f 71//71 5//5 68//68
f 69//69 84//84 101//101
f 72//72 71//71 68//68
f 80//80 38//38 14//14
f 69//69 68//68 70//70
f 210//210 207//207 208//208
f 62//62 60//60 65//65
f 42//42 40//40 45//45
f 171//171 193//193 194//194
f 190//190 119//119 169//169
f 172//172 194//194 190//190
f 194//194 172//172 171//171
f 98//98 110//110 102//102
f 100//100 78//78 72//72
f 67//67 138//138 140//140
f 140//140 137//137 54//54
f 32//32 33//33 41//41
f 167//167 168//168 130//130
f 205//205 206//206 143//143
f 119//119 118//118 115//115
f 23//23 27//27 12//12
f 126//126 189//189 188//188
f 118//118 176//176 120//120
f 126//126 124//124 189//189
f 180//180 176//176 118//118
f 197//197 188//188 187//187
f 119//119 180//180 118//118
f 127//127 126//126 188//188
f 191//191 180//180 119//119
f 90//90 187//187 186//186
f 191//191 179//179 180//180
f 198//198 128//128 127//127
f 119//119 190//190 192//192
f 167//167 88//88 129//129
f 119//119 192//192 191//191
f 167//167 86//86 88//88
f 195//195 179//179 191//191
f 168//168 167//167 129//129
f 170//170 179//179 195//195
f 168//168 129//129 128//128
f 170//170 195//195 193//193
f 198//198 168//168 128//128
f 193//193 171//171 170//170
f 197//197 198//198 127//127
f 183//183 179//179 170//170
f 197//197 127//127 188//188
f 183//183 170//170 96//96
f 196//196 197//197 187//187
f 94//94 183//183 96//96
f 90//90 196//196 187//187
f 185//185 183//183 94//94
f 92//92 186//186 185//185
f 186//186 92//92 90//90
f 92//92 91//91 90//90
f 96//96 95//95 94//94
f 129//129 99//99 128//128
f 86//86 85//85 88//88
f 74//74 75//75 76//76
f 102//102 84//84 74//74
f 74//74 73//73 98//98
f 98//98 102//102 74//74
f 74//74 76//76 5//5
f 103//103 110//110 111//111
f 103//103 112//112 113//113
f 108//108 107//107 120//120
f 82//82 23//23 25//25
f 72//72 31//31 71//71
f 82//82 83//83 23//23
f 72//72 35//35 31//31
f 82//82 25//25 34//34
f 34//34 72//72 82//82
f 162//162 161//161 149//149
f 148//148 156//156 162//162
f 162//162 149//149 147//147
f 5//5 76//76 18//18
f 143//143 144//144 205//205
f 164//164 194//194 163//163
f 162//162 196//196 161//161
f 88//88 87//87 129//129
f 195//195 191//191 159//159
f 190//190 194//194 166//166
f 138//138 139//139 212//212
f 167//167 151//151 165//165
f 18//18 81//81 113//113
f 78//78 80//80 14//14
f 18//18 113//113 112//112
f 104//104 103//103 79//79
f 18//18 112//112 83//83
f 104//104 110//110 103//103
f 14//14 18//18 83//83
f 106//106 104//104 79//79
f 14//14 83//83 82//82
f 106//106 79//79 80//80
f 14//14 82//82 78//78
f 25//25 24//24 34//34
f 12//12 24//24 23//23
f 153//153 170//170 171//171
f 170//170 153//153 152//152
f 142//142 145//145 202//202
f 212//212 213//213 138//138
f 33//33 28//28 30//30
f 24//24 12//12 9//9
f 33//33 32//32 28//28
f 30//30 24//24 9//9
f 30//30 36//36 33//33
f 54//54 55//55 51//51
f 38//38 80//80 79//79
f 79//79 70//70 38//38
f 70//70 84//84 69//69
f 73//73 147//147 149//149
f 134//134 131//131 111//111
f 73//73 149//149 150//150
f 133//133 134//134 111//111
f 98//98 150//150 151//151
f 110//110 133//133 111//111
f 98//98 151//151 130//130
f 110//110 132//132 133//133
f 98//98 73//73 150//150
f 130//130 132//132 110//110
f 172//172 114//114 171//171
f 165//165 150//150 161//161
f 77//77 31//31 29//29
f 31//31 77//77 71//71
f 27//27 83//83 112//112
f 112//112 29//29 26//26
f 27//27 23//23 83//83
f 112//112 77//77 29//29
f 122//122 123//123 126//126
f 120//120 121//121 21//21
f 109//109 108//108 120//120
f 120//120 176//176 121//121
f 21//21 6//6 19//19
f 21//21 22//22 109//109
f 109//109 120//120 21//21
f 116//116 119//119 115//115
f 116//116 117//117 169//169
f 107//107 117//117 116//116
f 95//95 97//97 74//74
f 107//107 116//116 115//115
f 91//91 74//74 84//84
f 103//103 117//117 107//107
f 93//93 95//95 74//74
f 109//109 107//107 108//108
f 91//91 93//93 74//74
f 103//103 107//107 109//109
f 89//89 91//91 84//84
f 103//103 109//109 22//22
f 87//87 89//89 84//84
f 103//103 22//22 20//20
f 87//87 85//85 89//89
f 79//79 103//103 20//20
f 99//99 87//87 84//84
f 79//79 20//20 16//16
f 99//99 84//84 79//79
f 122//122 125//125 105//105
f 105//105 99//99 79//79
f 79//79 16//16 17//17
f 17//17 123//123 122//122
f 122//122 105//105 79//79
f 94//94 93//93 92//92
f 117//117 114//114 169//169
f 112//112 131//131 136//136
f 131//131 112//112 111//111
f 147//147 73//73 77//77
f 112//112 136//136 135//135
f 148//148 147//147 77//77
f 77//77 112//112 135//135
f 173//173 11//11 13//13
f 175//175 174//174 173//173
f 178//178 181//181 177//177
f 181//181 182//182 184//184
f 177//177 175//175 178//178
f 7//7 21//21 121//121
f 173//173 13//13 4//4
f 4//4 7//7 121//121
f 181//181 178//178 182//182
f 175//175 177//177 174//174
f 173//173 4//4 121//121
f 186//186 187//187 181//181
f 179//179 183//183 178//178
f 180//180 179//179 175//175
f 183//183 185//185 182//182
f 185//185 186//186 184//184
f 176//176 180//180 121//121
f 187//187 188//188 177//177
f 58//58 56//56 61//61
f 11//11 16//16 10//10
f 124//124 123//123 17//17
f 173//173 189//189 124//124
f 10//10 2//2 11//11
f 11//11 173//173 124//124
f 17//17 16//16 11//11
f 101//101 106//106 100//100
f 201//201 146//146 202//202
f 47//47 44//44 45//45
f 104//104 106//106 102//102
f 40//40 32//32 43//43
f 64//64 62//62 67//67
f 137//137 140//140 209//209
f 63//63 60//60 61//61
f 45//45 49//49 47//47
f 142//142 146//146 37//37
f 43//43 49//49 45//45
f 145//145 37//37 52//52
f 49//49 144//144 143//143
f 145//145 142//142 37//37
f 49//49 39//39 144//144
f 143//143 145//145 52//52
f 39//39 49//49 43//43
f 43//43 41//41 39//39
f 61//61 65//65 63//63
f 65//65 138//138 67//67
f 54//54 137//137 141//141
f 139//139 138//138 65//65
f 55//55 141//141 207//207
f 207//207 139//139 65//65
f 65//65 61//61 59//59
f 59//59 57//57 55//55
f 55//55 54//54 141//141
f 55//55 65//65 59//59
f 165//165 86//86 167//167
f 86//86 196//196 90//90
f 53//53 50//50 57//57
f 48//48 46//46 52//52
f 113//113 81//81 75//75
f 198//198 197//197 155//155
f 188//188 189//189 174//174
f 192//192 190//190 199//199
f 158//158 191//191 199//199
f 193//193 195//195 163//163
f 125//125 122//122 127//127
f 37//37 39//39 36//36
f 200//200 144//144 39//39
f 39//39 146//146 200//200
f 37//37 9//9 38//38
f 54//54 48//48 52//52
f 37//37 36//36 9//9
f 54//54 51//51 48//48
f 52//52 37//37 38//38
f 67//67 70//70 66//66
f 66//66 64//64 67//67
f 54//54 52//52 38//38
f 54//54 70//70 67//67
f 197//197 196//196 157//157
f 49//49 46//46 47//47
f 203//203 200//200 201//201
f 1//1 8//8 2//2
f 128//128 105//105 127//127
f 211//211 139//139 210//210
f 56//56 53//53 59//59
f 141//141 137//137 208//208
# 442 faces, 0 coords texture

# End of File