####
#
# OBJ File Generated by Meshlab
#
####
# Object legr_toe_joint.obj
#
# Vertices: 183
# Faces: 370
#
####
vn -3.086060 -2.881615 -0.405962
v -0.006999 0.002328 0.000293
vn -3.793569 1.567668 -3.792404
v -0.007000 0.005488 0.013291
vn -2.689186 -3.928629 -1.113882
v -0.006998 0.002331 0.013291
vn -2.706458 -2.357631 -1.148201
v -0.010997 0.002330 0.017291
vn -2.679360 -3.928102 -1.109851
v -0.002999 0.002330 -0.002707
vn -3.089617 2.877712 -0.407020
v -0.007001 0.005485 0.000293
vn 4.711189 1.573299 -1.571734
v 0.005999 0.005496 0.013289
vn 1.569740 1.571126 -1.571338
v 0.005997 0.009495 0.013288
vn 1.569363 1.570566 -4.712850
v -0.000003 0.009492 0.013289
vn -4.663671 1.542908 -1.545872
v -0.011003 0.012486 0.017289
vn -1.352520 2.244976 -2.246659
v -0.007006 0.016487 0.013288
vn 1.569596 1.571199 -1.571278
v -0.000007 0.016491 0.013287
vn -2.626657 -2.620420 -1.516738
v -0.005927 0.002328 -0.003706
vn -0.002658 3.925758 -2.903592
v -0.000001 0.005490 0.002991
vn 2.049541 3.927774 -2.054044
v -0.002122 0.005488 0.002113
vn 2.900473 3.928800 -0.001372
v -0.003001 0.005487 -0.000008
vn -2.629282 2.616120 -1.517561
v -0.005929 0.005485 -0.003707
vn -3.086297 -2.881836 -0.405477
v -0.006994 -0.005514 0.000295
vn -2.673325 3.925035 -1.106217
v -0.006996 -0.000668 0.013292
vn -3.791680 -1.573968 -3.791490
v -0.006993 -0.005511 0.013293
vn -2.595695 -2.331244 -0.795963
v -0.010976 -0.031824 0.017299
vn 2.054612 -3.926281 -2.052030
v -0.002115 -0.005510 0.002116
vn -2.033785 -3.871670 -2.088387
v 0.002127 -0.005508 0.002115
vn 4.713245 -1.568169 -1.570897
v 0.006006 -0.005503 0.013292
vn -1.024233 -2.316340 -2.199010
v -0.006976 -0.032508 0.013299
vn 0.001481 -3.927630 -2.901572
v 0.000006 -0.005509 0.002994
vn -3.089211 2.877798 -0.407109
v -0.006997 -0.000671 0.000294
vn -2.613095 2.350761 -1.004139
v -0.010995 -0.000670 0.017292
vn -2.626470 -2.619708 -1.516668
v -0.005923 -0.005514 -0.003704
vn -2.629584 2.616328 -1.518383
v -0.005925 -0.000672 -0.003706
vn -2.683778 3.925632 -1.111097
v -0.002998 -0.000670 -0.002706
vn 2.904152 -3.925106 0.000739
v -0.002994 -0.005512 -0.000005
vn 2.055972 -3.925161 2.052835
v -0.002116 -0.005511 -0.002126
vn 1.569890 1.571389 -1.571188
v 0.005998 0.005491 -0.007707
vn 4.152524 -1.367678 2.359540
v 0.006001 0.000618 -0.001090
vn 4.190629 -2.718168 0.000665
v 0.006001 0.001243 -0.000008
vn -3.957721 -3.233640 -0.618606
v 0.003001 0.001241 -0.000007
vn 4.174359 -1.369770 -2.356831
v 0.006001 0.000618 0.001075
vn -3.711799 -1.492540 -3.988969
v 0.002811 0.000669 0.001044
vn 4.173399 1.371461 2.356678
v 0.006002 -0.000631 -0.001090
vn -3.391156 -0.893797 4.528069
v 0.002785 0.000546 -0.001127
vn -3.648566 -2.762961 2.641853
v 0.002929 0.001058 -0.000659
vn 4.711795 1.572420 -1.570922
v 0.006002 -0.000665 -0.004706
vn 4.189294 2.721897 -0.000898
v 0.006002 -0.001257 -0.000007
vn -3.709486 1.483515 3.997170
v 0.002812 -0.000684 -0.001059
vn 4.713315 -1.568504 -1.570815
v 0.006000 0.002335 -0.004707
vn 4.149231 1.371434 -2.360736
v 0.006002 -0.000631 0.001075
vn -3.962696 3.227452 0.620252
v 0.003003 -0.001258 -0.000007
vn -3.393597 0.884183 -4.528707
v 0.002785 -0.000561 0.001114
vn -3.649690 2.757098 -2.649933
v 0.002931 -0.001074 0.000646
vn -1.108199 -3.928682 -2.679859
v -0.001000 0.002331 -0.004707
vn 1.569486 1.571619 -1.571339
v 0.006001 -0.000665 -0.007706
vn -0.408486 2.878156 -3.088003
v 0.001002 -0.000668 -0.007706
vn -1.519240 2.616344 -2.628821
v -0.002997 -0.000671 -0.006634
vn -1.113657 3.925355 -2.682421
v -0.000998 -0.000669 -0.004706
vn 1.571092 -1.570432 -1.571080
v 0.005999 0.002334 -0.007707
vn -0.404776 -2.881173 -3.087018
v 0.001000 0.002331 -0.007706
vn -1.515533 -2.619287 -2.627106
v -0.002999 0.002329 -0.006635
vn -2.919709 3.865587 -0.039186
v 0.002998 0.005491 -0.000008
vn -0.408244 2.878656 -3.088628
v 0.000998 0.005488 -0.007707
vn 4.723229 -1.466187 1.742886
v 0.006014 -0.014524 0.042290
vn -2.051945 3.903143 -2.058282
v 0.002120 0.005491 0.002113
vn 2.680306 2.358021 1.109927
v 0.006000 0.009502 0.042284
vn 2.680857 0.788152 4.251792
v 0.000001 0.009500 0.048284
vn 2.597423 -1.177753 -2.161129
v 0.006015 -0.019502 0.013295
vn 2.862860 -0.717511 3.995570
v 0.000018 -0.019585 0.048290
vn 2.766280 -1.010020 -3.746468
v 0.000019 -0.025592 0.013297
vn 1.571394 -1.570152 -1.570614
v 0.006004 -0.005508 -0.007705
vn -2.914816 -3.869256 0.039883
v 0.003005 -0.005508 -0.000006
vn -0.405201 -2.881268 -3.087233
v 0.001005 -0.005511 -0.007704
vn -1.515846 -2.619753 -2.627134
v -0.002995 -0.005513 -0.006632
vn -2.047205 -3.905255 2.058709
v 0.002126 -0.005509 -0.002127
vn 0.002381 -3.926227 2.903882
v 0.000005 -0.005510 -0.003005
vn -1.519052 2.616428 -2.627984
v -0.003002 0.005486 -0.006635
vn -2.038255 3.869583 2.088305
v 0.002120 0.005490 -0.002129
vn -0.002468 3.927980 2.901965
v -0.000002 0.005488 -0.003008
vn 2.050830 3.928895 2.051283
v -0.002123 0.005487 -0.002129
vn -2.919589 3.069216 0.559181
v -0.010995 -0.000687 0.017541
vn -3.431935 3.071883 0.459660
v -0.002996 -0.000682 0.017540
vn -3.634478 1.030071 2.867137
v -0.010991 -0.006397 0.020883
vn -1.963041 1.659257 2.015442
v -0.010994 -0.001546 0.020399
vn -3.635116 2.262491 2.037961
v -0.010989 -0.010442 0.023602
vn -3.112103 -2.876439 0.791643
v -0.010977 -0.027533 0.042294
vn 1.401999 -1.547866 -1.305138
v 0.000023 -0.032504 0.013299
vn -3.474571 -0.002583 -3.097691
v -0.010992 -0.003008 0.040289
vn -5.013800 1.987780 0.965803
v -0.011001 0.012491 0.042285
vn -3.297348 1.759910 3.297251
v -0.009243 0.012493 0.046527
vn -3.474138 1.008737 -2.928883
v -0.010990 -0.006272 0.039741
vn -3.476282 1.909253 -2.438658
v -0.010988 -0.009179 0.038159
vn -3.475747 2.600533 -1.680493
v -0.010987 -0.011410 0.035714
vn -2.281284 1.909240 -2.121598
v -0.010986 -0.012720 0.032675
vn -3.989326 1.897591 -2.144013
v -0.010985 -0.014600 0.032089
vn -3.988084 2.863006 0.000188
v -0.010985 -0.015408 0.030293
vn -3.988397 1.898108 2.143764
v -0.010986 -0.014601 0.028497
vn -2.892087 -2.672109 1.576907
v -0.010513 -0.027136 0.044607
vn -3.986353 -2.866993 0.001585
v -0.011000 0.009389 0.030287
vn -2.365975 5.110084 0.517527
v -0.007004 0.016493 0.042284
vn -3.985294 -1.904305 -2.143491
v -0.010999 0.008581 0.032083
vn -3.471532 -2.605357 -1.680218
v -0.010997 0.005392 0.035710
vn -3.474828 -1.914140 -2.436980
v -0.010996 0.003162 0.038157
vn -3.473478 -1.014332 -2.927946
v -0.010994 0.000256 0.039740
vn -1.772814 4.858725 1.769059
v -0.006418 0.016494 0.043698
vn -3.580366 -2.382576 1.931987
v -0.010998 0.004754 0.023990
vn -2.333447 -1.875347 2.198971
v -0.010999 0.006701 0.027906
vn -3.985109 -1.901358 2.145350
v -0.011000 0.008580 0.028492
vn -3.408116 -3.076250 -0.491270
v -0.010997 0.002313 0.017990
vn -2.850436 -3.076030 -0.459255
v -0.002998 0.002318 0.017989
vn -1.945296 -2.478994 0.779793
v -0.010996 0.001322 0.021279
vn -1.198308 -5.483850 -0.133982
v -0.008996 0.001323 0.021279
vn -4.113010 -2.730097 0.526032
v -0.002996 0.000283 0.024683
vn -2.698488 -2.381754 1.932103
v -0.008998 0.004755 0.023989
vn -3.947901 -1.877285 2.199613
v -0.008999 0.006702 0.027906
vn -2.294142 -1.901545 2.144731
v -0.009000 0.008582 0.028492
vn -2.294168 -2.865933 0.000963
v -0.009000 0.009390 0.030287
vn -2.279140 -1.911994 -2.120464
v -0.010998 0.006702 0.032670
vn -2.293951 -1.903577 -2.143747
v -0.009000 0.008583 0.032083
vn -4.002195 -1.913575 -2.119938
v -0.008998 0.006703 0.032670
vn -2.806376 -2.604296 -1.679675
v -0.008997 0.005394 0.035710
vn -2.808956 -1.914231 -2.437629
v -0.008996 0.003163 0.038156
vn -2.808667 -1.013987 -2.927943
v -0.008994 0.000257 0.039740
vn -2.808612 -0.002175 -3.097965
v -0.008992 -0.003007 0.040289
vn -2.810031 1.009263 -2.928712
v -0.008990 -0.006271 0.039741
vn -2.811305 1.909705 -2.437974
v -0.008988 -0.009178 0.038158
vn -2.810020 2.600850 -1.680247
v -0.008987 -0.011409 0.035714
vn -4.003706 1.908604 -2.121572
v -0.008987 -0.012719 0.032675
vn -2.298053 1.899871 -2.145107
v -0.008986 -0.014599 0.032088
vn -2.297920 2.863247 -0.000814
v -0.008985 -0.015407 0.030293
vn -2.360957 1.855698 2.234506
v -0.010987 -0.012721 0.027910
vn -2.296686 1.900293 2.143987
v -0.008986 -0.014600 0.028497
vn -3.924084 1.854055 2.234625
v -0.008987 -0.012720 0.027910
vn -2.650334 2.263330 2.038385
v -0.008989 -0.010441 0.023602
vn -2.649737 1.030542 2.866245
v -0.008991 -0.006396 0.020883
vn -1.175154 4.665778 2.927708
v -0.008994 -0.001545 0.020399
vn 2.354420 2.683150 1.109996
v -0.000004 0.016498 0.044283
vn 1.741419 -1.546620 1.836423
v 0.000022 -0.026497 0.048292
vn -0.621033 -2.705793 3.548076
v -0.004977 -0.026500 0.048292
vn -1.990684 -2.516321 2.781157
v -0.009201 -0.026801 0.046554
vn -0.966401 1.991219 5.012836
v -0.005001 0.012496 0.048283
vn 2.355736 1.112881 2.681174
v -0.000001 0.012499 0.048283
vn -0.521020 5.111742 2.361085
v -0.005004 0.016495 0.044283
vn -4.117924 1.962517 1.959391
v -0.002994 -0.002585 0.023804
vn -2.168100 1.962595 1.961086
v -0.008994 -0.002589 0.023805
vn -2.415603 1.805249 2.314781
v -0.002991 -0.007004 0.025167
vn -2.412974 -2.793993 0.904941
v -0.002997 0.003178 0.028287
vn -2.416328 2.886489 0.528135
v -0.002989 -0.009398 0.029121
vn -3.870057 2.885757 0.529760
v -0.008989 -0.009401 0.029119
vn -3.869554 1.803517 2.315167
v -0.008991 -0.007006 0.025166
vn -2.412923 -2.690280 -1.180611
v -0.002997 0.002946 0.032903
vn -2.416229 2.507895 -1.526061
v -0.002990 -0.008558 0.033666
vn -3.870145 2.507200 -1.524123
v -0.008989 -0.008563 0.033664
vn -2.414010 -1.224887 -2.668730
v -0.002994 -0.000296 0.036197
vn -2.415372 0.858982 -2.807722
v -0.002992 -0.004909 0.036503
vn -3.869284 0.858382 -2.807008
v -0.008991 -0.004914 0.036503
vn -3.868045 -1.225324 -2.669141
v -0.008994 -0.000301 0.036198
vn -3.867050 -2.690296 -1.180895
v -0.008996 0.002942 0.032904
vn -3.867229 -2.794922 0.905064
v -0.008997 0.003175 0.028288
vn -2.165395 -2.727802 0.523572
v -0.008995 0.000279 0.024684
vn -4.189808 2.719248 -0.002505
v -0.008986 -0.013807 0.030293
vn -4.188195 -1.362614 2.354763
v -0.008987 -0.012607 0.029600
vn -4.190344 1.359755 2.356057
v -0.008986 -0.013408 0.029600
vn -4.189565 1.358099 -2.358203
v -0.008986 -0.013407 0.030985
vn -4.185322 -2.724761 0.000888
v -0.008987 -0.012208 0.030292
vn -4.189477 -1.363773 -2.354281
v -0.008987 -0.012607 0.030985
vn -4.189987 1.357847 -2.355814
v -0.008998 0.006590 0.030980
vn -4.188159 2.720039 0.000468
v -0.008998 0.006191 0.030288
vn -4.186406 -2.724318 0.000868
v -0.008999 0.007790 0.030288
vn -4.188660 -1.351564 -2.348397
v -0.008999 0.007391 0.030980
vn -4.187904 -1.361831 2.357467
v -0.008999 0.007390 0.029595
vn -4.190570 1.352775 2.353126
v -0.008999 0.006590 0.029595
vn -1.855040 3.830660 -0.003201
v -0.004199 0.006193 0.030288
vn -1.856478 1.914588 -3.323234
v -0.004199 0.006594 0.030980
vn -1.854565 1.916772 3.319786
v -0.004199 0.006593 0.029595
vn -1.853173 -1.917118 3.320100
v -0.004199 0.007393 0.029595
vn -1.850262 -3.836829 0.001290
v -0.004200 0.007793 0.030287
vn -1.853352 -1.917009 -3.318234
v -0.004199 0.007393 0.030980
vn -1.855756 3.837054 -0.001872
v -0.004187 -0.013804 0.030292
vn -1.852861 1.914392 -3.320930
v -0.004187 -0.013404 0.030985
vn -1.852760 1.917928 3.318323
v -0.004187 -0.013405 0.029599
vn -1.852040 -1.917764 3.319723
v -0.004187 -0.012605 0.029599
vn -1.850354 -3.840057 0.000853
v -0.004188 -0.012205 0.030292
vn -1.852935 -1.921672 -3.319250
v -0.004187 -0.012604 0.030984
vn -4.368939 -0.003724 0.001128
v -0.003719 0.006994 0.030287
vn -4.363611 -0.002906 -0.000611
v -0.003706 -0.013004 0.030292
# 183 vertices, 0 vertices normals

f 90//90 89//89 123//123
f 59//59 7//7 34//34
f 131//131 82//82 128//128
f 34//34 56//56 57//57
f 62//62 23//23 26//26
f 160//160 158//158 176//176
f 104//104 112//112 113//113
f 22//22 15//15 14//14
f 17//17 6//6 16//16
f 55//55 51//51 46//46
f 28//28 20//20 21//21
f 69//69 68//68 24//24
f 141//141 79//79 133//133
f 89//89 88//88 122//122
f 169//169 165//165 170//170
f 29//29 33//33 32//32
f 37//37 35//35 36//36
f 161//161 163//163 181//181
f 41//41 75//75 72//72
f 42//42 59//59 75//75
f 42//42 35//35 37//37
f 42//42 41//41 35//35
f 38//38 39//39 37//37
f 7//7 63//63 24//24
f 48//48 47//47 44//44
f 5//5 3//3 1//1
f 50//50 49//49 47//47
f 48//48 50//50 47//47
f 85//85 101//101 120//120
f 134//134 140//140 138//138
f 22//22 32//32 16//16
f 105//105 113//113 114//114
f 97//97 134//134 12//12
f 80//80 82//82 131//131
f 67//67 84//84 25//25
f 157//157 110//110 144//144
f 94//94 93//93 127//127
f 46//46 34//34 36//36
f 40//40 35//35 41//41
f 50//50 69//69 23//23
f 48//48 72//72 69//69
f 48//48 69//69 50//50
f 49//49 23//23 62//62
f 45//45 72//72 48//48
f 135//135 84//84 67//67
f 33//33 77//77 16//16
f 13//13 17//17 74//74
f 9//9 8//8 7//7
f 38//38 47//47 49//49
f 37//37 62//62 59//59
f 42//42 37//37 59//59
f 39//39 62//62 37//37
f 156//156 144//144 148//148
f 115//115 117//117 118//118
f 87//87 86//86 83//83
f 87//87 83//83 95//95
f 10//10 86//86 97//97
f 61//61 66//66 67//67
f 73//73 72//72 75//75
f 61//61 63//63 64//64
f 103//103 111//111 112//112
f 113//113 112//112 168//168
f 99//99 118//118 119//119
f 88//88 85//85 121//121
f 91//91 90//90 124//124
f 29//29 18//18 27//27
f 71//71 29//29 30//30
f 92//92 126//126 127//127
f 91//91 125//125 126//126
f 150//150 146//146 162//162
f 18//18 20//20 19//19
f 30//30 27//27 31//31
f 83//83 135//135 136//136
f 81//81 80//80 132//132
f 40//40 45//45 48//48
f 3//3 2//2 6//6
f 87//87 102//102 97//97
f 87//87 95//95 137//137
f 79//79 141//141 110//110
f 169//169 172//172 173//173
f 159//159 162//162 130//130
f 33//33 73//73 76//76
f 155//155 148//148 151//151
f 153//153 152//152 149//149
f 87//87 137//137 136//136
f 150//150 149//149 145//145
f 146//146 145//145 143//143
f 154//154 151//151 152//152
f 147//147 143//143 141//141
f 58//58 74//74 60//60
f 128//128 94//94 129//129
f 52//52 68//68 70//70
f 108//108 109//109 111//111
f 31//31 5//5 51//51
f 101//101 100//100 119//119
f 98//98 96//96 114//114
f 89//89 90//90 83//83
f 107//107 109//109 106//106
f 63//63 8//8 9//9
f 138//138 140//140 102//102
f 164//164 167//167 175//175
f 64//64 139//139 138//138
f 160//160 178//178 179//179
f 168//168 173//173 174//174
f 1//1 6//6 17//17
f 167//167 166//166 174//174
f 164//164 171//171 170//170
f 64//64 9//9 134//134
f 159//159 179//179 180//180
f 54//54 53//53 70//70
f 163//163 162//162 180//180
f 161//161 177//177 176//176
f 10//10 2//2 4//4
f 173//173 182//182 174//174
f 175//175 174//174 182//182
f 172//172 182//182 173//173
f 170//170 182//182 172//172
f 171//171 182//182 170//170
f 175//175 182//182 171//171
f 179//179 183//183 180//180
f 181//181 180//180 183//183
f 178//178 183//183 179//179
f 176//176 183//183 178//178
f 177//177 183//183 176//176
f 181//181 183//183 177//177
f 115//115 98//98 116//116
f 124//124 90//90 123//123
f 74//74 77//77 76//76
f 2//2 15//15 6//6
f 74//74 17//17 77//77
f 14//14 15//15 2//2
f 60//60 76//76 75//75
f 7//7 14//14 2//2
f 60//60 74//74 76//76
f 62//62 14//14 7//7
f 34//34 75//75 59//59
f 59//59 62//62 7//7
f 34//34 60//60 75//75
f 130//130 131//131 128//128
f 60//60 34//34 57//57
f 14//14 62//62 26//26
f 178//178 160//160 176//176
f 105//105 104//104 113//113
f 26//26 22//22 14//14
f 16//16 77//77 17//17
f 6//6 15//15 16//16
f 43//43 55//55 46//46
f 20//20 28//28 19//19
f 20//20 25//25 21//21
f 18//18 32//32 22//22
f 22//22 20//20 18//18
f 72//72 70//70 68//68
f 26//26 20//20 22//22
f 73//73 71//71 70//70
f 24//24 20//20 26//26
f 73//73 29//29 71//71
f 24//24 26//26 23//23
f 72//72 73//73 70//70
f 24//24 23//23 69//69
f 69//69 72//72 68//68
f 133//133 142//142 141//141
f 78//78 81//81 133//133
f 133//133 79//79 78//78
f 123//123 89//89 122//122
f 172//172 169//169 170//170
f 32//32 18//18 29//29
f 29//29 73//73 33//33
f 177//177 161//161 181//181
f 45//45 41//41 72//72
f 41//41 42//42 75//75
f 36//36 38//38 37//37
f 36//36 34//34 7//7
f 68//68 43//43 44//44
f 38//38 36//36 7//7
f 68//68 52//52 43//43
f 47//47 38//38 7//7
f 24//24 68//68 44//44
f 24//24 47//47 7//7
f 7//7 8//8 63//63
f 24//24 61//61 65//65
f 24//24 44//44 47//47
f 63//63 61//61 24//24
f 46//46 57//57 56//56
f 5//5 13//13 58//58
f 107//107 4//4 3//3
f 5//5 1//1 13//13
f 51//51 57//57 46//46
f 107//107 106//106 4//4
f 58//58 57//57 51//51
f 5//5 107//107 3//3
f 58//58 51//51 5//5
f 121//121 85//85 120//120
f 139//139 134//134 138//138
f 15//15 22//22 16//16
f 96//96 105//105 114//114
f 140//140 97//97 102//102
f 97//97 12//12 11//11
f 97//97 140//140 134//134
f 132//132 80//80 131//131
f 20//20 24//24 65//65
f 67//67 25//25 20//20
f 20//20 65//65 67//67
f 156//156 157//157 144//144
f 129//129 94//94 127//127
f 40//40 44//44 43//43
f 46//46 56//56 34//34
f 35//35 43//43 46//46
f 46//46 36//36 35//35
f 35//35 40//40 43//43
f 45//45 40//40 41//41
f 49//49 50//50 23//23
f 39//39 49//49 62//62
f 66//66 135//135 67//67
f 32//32 33//33 16//16
f 58//58 13//13 74//74
f 11//11 12//12 9//9
f 9//9 7//7 2//2
f 2//2 11//11 9//9
f 39//39 38//38 49//49
f 155//155 156//156 148//148
f 99//99 115//115 118//118
f 11//11 10//10 97//97
f 65//65 61//61 67//67
f 76//76 73//73 75//75
f 66//66 61//61 64//64
f 104//104 103//103 112//112
f 166//166 114//114 113//113
f 166//166 117//117 116//116
f 112//112 165//165 169//169
f 166//166 116//116 114//114
f 112//112 169//169 168//168
f 168//168 166//166 113//113
f 112//112 111//111 165//165
f 100//100 99//99 119//119
f 122//122 88//88 121//121
f 125//125 91//91 124//124
f 30//30 29//29 27//27
f 54//54 71//71 30//30
f 93//93 92//92 127//127
f 92//92 91//91 126//126
f 155//155 119//119 118//118
f 154//154 121//121 120//120
f 153//153 123//123 122//122
f 161//161 126//126 125//125
f 150//150 124//124 123//123
f 154//154 120//120 119//119
f 117//117 166//166 167//167
f 155//155 118//118 117//117
f 158//158 129//129 127//127
f 117//117 167//167 164//164
f 160//160 130//130 129//129
f 155//155 164//164 165//165
f 158//158 160//160 129//129
f 156//156 165//165 111//111
f 158//158 127//127 126//126
f 157//157 111//111 109//109
f 161//161 158//158 126//126
f 156//156 111//111 157//157
f 150//150 125//125 124//124
f 155//155 165//165 156//156
f 163//163 161//161 125//125
f 117//117 164//164 155//155
f 150//150 163//163 125//125
f 119//119 155//155 154//154
f 146//146 131//131 162//162
f 153//153 121//121 154//154
f 142//142 133//133 132//132
f 122//122 121//121 153//153
f 147//147 142//142 132//132
f 123//123 153//153 150//150
f 147//147 132//132 131//131
f 162//162 163//163 150//150
f 146//146 147//147 131//131
f 27//27 18//18 19//19
f 31//31 54//54 30//30
f 43//43 52//52 53//53
f 28//28 78//78 79//79
f 55//55 43//43 53//53
f 19//19 28//28 79//79
f 54//54 55//55 53//53
f 19//19 79//79 31//31
f 31//31 27//27 19//19
f 31//31 55//55 54//54
f 21//21 25//25 84//84
f 84//84 83//83 21//21
f 136//136 137//137 95//95
f 95//95 83//83 136//136
f 135//135 83//83 84//84
f 133//133 81//81 132//132
f 44//44 40//40 48//48
f 1//1 3//3 6//6
f 86//86 87//87 97//97
f 79//79 107//107 5//5
f 148//148 144//144 110//110
f 110//110 141//141 148//148
f 145//145 149//149 152//152
f 152//152 143//143 145//145
f 5//5 31//31 79//79
f 151//151 143//143 152//152
f 110//110 107//107 79//79
f 151//151 141//141 143//143
f 141//141 151//151 148//148
f 168//168 169//169 173//173
f 130//130 160//160 159//159
f 162//162 131//131 130//130
f 77//77 33//33 76//76
f 154//154 155//155 151//151
f 150//150 153//153 149//149
f 138//138 87//87 136//136
f 146//146 150//150 145//145
f 147//147 146//146 143//143
f 153//153 154//154 152//152
f 142//142 147//147 141//141
f 57//57 58//58 60//60
f 130//130 128//128 129//129
f 53//53 52//52 70//70
f 103//103 108//108 111//111
f 55//55 31//31 51//51
f 120//120 101//101 119//119
f 116//116 98//98 114//114
f 10//10 4//4 106//106
f 106//106 108//108 103//103
f 103//103 104//104 105//105
f 98//98 115//115 99//99
f 10//10 103//103 105//105
f 90//90 91//91 92//92
f 10//10 106//106 103//103
f 94//94 128//128 82//82
f 10//10 105//105 96//96
f 80//80 81//81 78//78
f 86//86 10//10 96//96
f 80//80 78//78 28//28
f 86//86 96//96 98//98
f 80//80 28//28 21//21
f 86//86 98//98 99//99
f 82//82 80//80 21//21
f 86//86 99//99 100//100
f 94//94 82//82 21//21
f 86//86 100//100 101//101
f 93//93 94//94 21//21
f 86//86 101//101 85//85
f 83//83 93//93 21//21
f 83//83 86//86 85//85
f 83//83 92//92 93//93
f 83//83 85//85 88//88
f 83//83 90//90 92//92
f 83//83 88//88 89//89
f 109//109 107//107 110//110
f 109//109 108//108 106//106
f 110//110 157//157 109//109
f 64//64 63//63 9//9
f 87//87 138//138 102//102
f 171//171 164//164 175//175
f 136//136 135//135 66//66
f 66//66 138//138 136//136
f 138//138 66//66 64//64
f 159//159 160//160 179//179
f 166//166 168//168 174//174
f 13//13 1//1 17//17
f 175//175 167//167 174//174
f 165//165 164//164 170//170
f 134//134 139//139 64//64
f 9//9 12//12 134//134
f 162//162 159//159 180//180
f 71//71 54//54 70//70
f 181//181 163//163 180//180
f 158//158 161//161 176//176
f 2//2 10//10 11//11
f 2//2 3//3 4//4
f 117//117 115//115 116//116
# 370 faces, 0 coords texture

# End of File