# Blender v2.79 (sub 0) OBJ File: 'mir100_hook.blend'
# www.blender.org
o visual_tilt_actuator_cylinder_Part__Feature079
v -0.014885 -0.031528 0.009221
v -0.014875 -0.032127 0.009303
v -0.006603 -0.029410 0.009442
v -0.014856 -0.032333 0.009335
v -0.006841 -0.028656 0.009592
v -0.009779 -0.026284 0.009974
v -0.014755 -0.032941 0.009442
v -0.009885 -0.026273 0.009966
v -0.007721 -0.027296 0.009878
v -0.014716 -0.033101 0.009473
v -0.010317 -0.026265 0.009923
v -0.010924 -0.026342 0.009840
v -0.014466 -0.033817 0.009618
v -0.011097 -0.026383 0.009811
v -0.011512 -0.026515 0.009735
v -0.014090 -0.034500 0.009763
v -0.011862 -0.026665 0.009664
v -0.013637 -0.035055 0.009878
v -0.012549 -0.027070 0.009511
v -0.013589 -0.035102 0.009888
v -0.013165 -0.027588 0.009365
v -0.013343 -0.027772 0.009323
v -0.013716 -0.028217 0.009239
v -0.014075 -0.028760 0.009169
v -0.011886 -0.036019 0.009991
v -0.014170 -0.028929 0.009153
v -0.008810 -0.035281 0.009511
v -0.014575 -0.029854 0.009114
v -0.008194 -0.034763 0.009365
v -0.014702 -0.030279 0.009122
v -0.007188 -0.033422 0.009153
v -0.006845 -0.032672 0.009116
v -0.014798 -0.030724 0.009145
v -0.014871 -0.031284 0.009194
v -0.013031 -0.035549 -0.009966
v -0.012193 -0.026840 -0.009592
v -0.013814 -0.034863 -0.009840
v -0.008691 -0.026597 -0.009991
v -0.012078 -0.026775 -0.009618
v -0.011459 -0.026496 -0.009745
v -0.014175 -0.034367 -0.009735
v -0.011364 -0.026462 -0.009763
v -0.014362 -0.034035 -0.009664
v -0.007432 -0.027626 -0.009811
v -0.010667 -0.026297 -0.009878
v -0.014624 -0.033410 -0.009534
v -0.010600 -0.026288 -0.009888
v -0.014660 -0.033297 -0.009511
v -0.006996 -0.028316 -0.009664
v -0.009856 -0.026276 -0.009968
v -0.014834 -0.032511 -0.009365
v -0.006698 -0.029054 -0.009511
v -0.009822 -0.026279 -0.009971
v -0.014889 -0.031676 -0.009239
v -0.006470 -0.030675 -0.009239
v -0.014844 -0.031026 -0.009169
v -0.006541 -0.031516 -0.009153
v -0.014817 -0.030835 -0.009153
v -0.014632 -0.030031 -0.009116
v -0.014575 -0.029854 -0.009114
v -0.014417 -0.029440 -0.009122
v -0.007928 -0.034483 -0.009303
v -0.014344 -0.029275 -0.009130
v -0.008518 -0.035056 -0.009442
v -0.014223 -0.029028 -0.009145
v -0.013940 -0.028539 -0.009194
v -0.013803 -0.028337 -0.009221
v -0.010691 -0.036054 -0.009878
v -0.011503 -0.036075 -0.009968
v -0.012285 -0.035911 -0.010000
v -0.013291 -0.027716 -0.009335
v -0.012667 -0.035754 -0.009991
v -0.012840 -0.027295 -0.009442
v 0.004863 0.042221 -0.004647
v 0.004054 0.042496 -0.002393
v 0.020337 0.036973 -0.006631
v 0.004054 0.042496 0.002393
v 0.021634 0.036534 -0.004647
v 0.007869 0.041202 0.008230
v 0.006160 0.041782 0.006631
v 0.022719 0.036166 0.000000
v 0.012107 0.039765 -0.009927
v 0.022444 0.036259 0.002393
v 0.021634 0.036534 0.004647
v 0.020337 0.036973 0.006631
v 0.006160 0.041782 -0.006631
v -0.004054 -0.041870 0.002393
v -0.003778 -0.041963 -0.000000
v -0.004863 -0.041596 0.004647
v -0.006160 -0.041156 0.006631
v -0.007869 -0.040576 0.008230
v -0.009890 -0.039891 0.009350
v -0.012107 -0.039139 0.009927
v -0.014390 -0.038365 0.009927
v -0.016607 -0.037613 0.009350
v -0.018628 -0.036927 0.008230
v -0.020337 -0.036348 0.006631
v -0.021634 -0.035908 0.004647
v -0.022444 -0.035633 0.002393
v -0.022719 -0.035540 -0.000000
v -0.022444 -0.035633 -0.002393
v -0.021634 -0.035908 -0.004647
v -0.020337 -0.036348 -0.006631
v -0.018628 -0.036927 -0.008230
v -0.016607 -0.037613 -0.009350
v -0.014390 -0.038364 -0.009927
v -0.012107 -0.039139 -0.009927
v -0.009890 -0.039891 -0.009350
v -0.007869 -0.040576 -0.008230
v -0.006160 -0.041156 -0.006631
v -0.004863 -0.041596 -0.004647
v -0.004054 -0.041870 -0.002393
v -0.012542 -0.040047 0.008934
v -0.010547 -0.040724 0.008415
v -0.005047 -0.042589 -0.000000
v -0.005294 -0.042505 -0.002154
v -0.008728 -0.041341 0.007407
v -0.007190 -0.041862 0.005968
v -0.006023 -0.042258 -0.004183
v -0.006023 -0.042258 0.004183
v -0.007190 -0.041862 -0.005968
v -0.005294 -0.042505 0.002154
v -0.008728 -0.041341 -0.007407
v -0.010547 -0.040724 -0.008415
v -0.012542 -0.040047 -0.008934
v -0.014597 -0.039350 -0.008934
v -0.016592 -0.038674 -0.008415
v -0.018411 -0.038057 -0.007407
v -0.019949 -0.037535 -0.005968
v -0.021117 -0.037139 -0.004183
v -0.021845 -0.036892 -0.002154
v -0.022093 -0.036808 -0.000000
v -0.021845 -0.036892 0.002154
v -0.021117 -0.037139 0.004183
v -0.019949 -0.037535 0.005968
v -0.018411 -0.038057 0.007407
v -0.016592 -0.038674 0.008415
v -0.014597 -0.039350 0.008934
v -0.016607 -0.037613 -0.009350
v -0.014390 -0.038364 -0.009927
v -0.021845 -0.036892 0.002154
v -0.021117 -0.037139 0.004183
v -0.014145 -0.034415 0.009745
v -0.022719 -0.035540 -0.000000
v -0.022444 -0.035633 -0.002393
v -0.016592 -0.038674 -0.008415
v -0.018411 -0.038057 -0.007407
v -0.005294 -0.042505 -0.002154
v -0.006023 -0.042258 -0.004183
v -0.004863 -0.041596 -0.004647
v -0.004054 -0.041870 -0.002393
v -0.009890 -0.039891 0.009350
v -0.012107 -0.039139 0.009927
v -0.007418 -0.033812 -0.009194
v 0.016607 0.038239 -0.009350
v 0.014390 0.038990 -0.009927
v -0.013926 -0.034725 -0.009811
v -0.014390 -0.038365 0.009927
v -0.012940 -0.035606 -0.009974
v -0.012107 -0.039139 -0.009927
v -0.007190 -0.041862 0.005968
v -0.006023 -0.042258 0.004183
v -0.008728 -0.041341 0.007407
v 0.018628 0.037553 -0.008230
v -0.022093 -0.036808 -0.000000
v -0.004054 -0.041870 0.002393
v -0.004863 -0.041596 0.004647
v 0.014390 0.038990 0.009927
v 0.012107 0.039765 0.009927
v -0.012619 -0.035776 -0.009993
v -0.021634 -0.035908 -0.004647
v -0.014513 -0.029679 0.009116
v -0.021845 -0.036892 -0.002154
v -0.016607 -0.037613 0.009350
v -0.018628 -0.036927 0.008230
v -0.007643 -0.034134 0.009239
v 0.009890 0.040516 -0.009350
v 0.007869 0.041202 -0.008230
v -0.013379 -0.035293 -0.009923
v -0.013512 -0.035176 -0.009902
v -0.005294 -0.042505 0.002154
v -0.014864 -0.032256 -0.009323
v -0.007213 -0.027936 0.009745
v -0.005047 -0.042589 -0.000000
v -0.009165 -0.035511 -0.009592
v -0.019949 -0.037535 0.005968
v -0.020337 -0.036348 0.006631
v -0.009073 -0.026440 -0.010000
v -0.009496 -0.035686 0.009664
v -0.006483 -0.030224 0.009303
v -0.008327 -0.026802 -0.009966
v -0.007846 -0.027175 -0.009902
v -0.018411 -0.038057 0.007407
v -0.019949 -0.037535 -0.005968
v -0.021117 -0.037139 -0.004183
v -0.021634 -0.035908 0.004647
v -0.012285 -0.035911 0.010000
v -0.007014 -0.033076 -0.009130
v -0.020337 -0.036348 -0.006631
v 0.004863 0.042221 0.004647
v -0.012542 -0.040047 0.008934
v -0.010547 -0.040724 0.008415
v -0.014744 -0.030455 0.009130
v -0.006488 -0.031067 0.009194
v -0.016592 -0.038674 0.008415
v 0.018628 0.037553 0.008230
v 0.022444 0.036259 -0.002393
v -0.022444 -0.035633 0.002393
v -0.006524 -0.029840 -0.009365
v -0.007869 -0.040576 0.008230
v 0.009890 0.040516 0.009350
v -0.009073 -0.026440 0.010000
v -0.008352 -0.026786 0.009968
v -0.009420 -0.026343 0.009993
v -0.009472 -0.026332 0.009991
v -0.013430 -0.027868 -0.009303
v 0.016607 0.038239 0.009350
v -0.013006 -0.035565 0.009968
v -0.018628 -0.036927 -0.008230
v -0.006614 -0.031896 0.009130
v 0.003778 0.042589 0.000000
v -0.010494 -0.026277 0.009902
v -0.011473 -0.036078 0.009966
v -0.012978 -0.035583 0.009971
v -0.009899 -0.035855 -0.009745
v -0.007190 -0.041862 -0.005968
v -0.012451 -0.027002 0.009534
v -0.010864 -0.036074 0.009902
v -0.010261 -0.035968 0.009811
v -0.012542 -0.040047 -0.008934
v -0.014597 -0.039350 -0.008934
v -0.006160 -0.041156 0.006631
v -0.003778 -0.041963 -0.000000
v -0.007869 -0.040576 -0.008230
v -0.006160 -0.041156 -0.006631
v -0.012712 -0.027192 -0.009473
v -0.010547 -0.040724 -0.008415
v -0.006726 -0.032320 -0.009116
v -0.014597 -0.039350 0.008934
v -0.008728 -0.041341 -0.007407
v -0.009890 -0.039891 -0.009350
v -0.014518 -0.033695 0.009592
vn 0.9195 -0.3118 0.2393
vn 0.9470 -0.3211 0.0000
vn 0.8385 -0.2844 0.4647
vn 0.7089 -0.2404 0.6631
vn 0.5387 -0.1859 0.8217
vn 0.5382 -0.1822 0.8229
vn 0.4604 -0.1557 0.8739
vn 0.4779 -0.1587 0.8639
vn 0.3869 -0.1291 0.9130
vn 0.3362 -0.1132 0.9350
vn 0.4348 -0.1545 0.8872
vn 0.3552 -0.1204 0.9270
vn 0.3217 -0.1091 0.9405
vn 0.3351 -0.1252 0.9338
vn 0.3719 -0.1275 0.9195
vn 0.3408 -0.1155 0.9330
vn 0.2777 -0.0939 0.9561
vn 0.3022 -0.1039 0.9475
vn 0.2227 -0.0749 0.9720
vn 0.1145 -0.0377 0.9927
vn 0.2537 -0.0956 0.9625
vn 0.1554 -0.0526 0.9864
vn 0.0796 -0.0269 0.9965
vn 0.1104 -0.0561 0.9923
vn 0.2042 -0.0831 0.9754
vn 0.1394 -0.0483 0.9890
vn 0.0834 -0.0300 0.9960
vn 0.0108 -0.0031 0.9999
vn -0.1138 0.0397 0.9927
vn 0.0349 -0.0231 0.9991
vn -0.0272 0.0099 0.9996
vn -0.0457 0.0159 0.9988
vn -0.0115 -0.0117 0.9998
vn -0.0642 0.0220 0.9977
vn -0.0872 0.0296 0.9957
vn -0.1140 0.0387 0.9927
vn -0.1411 0.0479 0.9888
vn -0.1677 0.0571 0.9842
vn -0.1929 0.0660 0.9790
vn -0.1214 0.0222 0.9923
vn -0.0578 0.0136 0.9982
vn -0.0927 0.0311 0.9952
vn -0.1700 0.0532 0.9840
vn -0.1321 0.0444 0.9902
vn -0.2217 0.0761 0.9721
vn -0.3356 0.1147 0.9350
vn -0.2554 0.0872 0.9629
vn -0.2156 0.0580 0.9747
vn -0.2413 0.0671 0.9681
vn -0.2836 0.0964 0.9540
vn -0.3078 0.1044 0.9457
vn -0.3328 0.1129 0.9362
vn -0.3500 0.1187 0.9292
vn -0.3674 0.1247 0.9217
vn -0.3782 0.1284 0.9167
vn -0.4002 0.1375 0.9060
vn -0.5380 0.1828 0.8228
vn -0.3426 0.1040 0.9337
vn -0.2641 0.0812 0.9610
vn -0.2841 0.0925 0.9543
vn -0.3048 0.1020 0.9469
vn -0.3223 0.1092 0.9403
vn -0.3402 0.1154 0.9333
vn -0.3559 0.1203 0.9267
vn -0.3711 0.1245 0.9202
vn -0.3856 0.1284 0.9136
vn -0.4166 0.1361 0.8988
vn -0.4632 0.1573 0.8722
vn -0.4447 0.1442 0.8840
vn -0.5407 0.1801 0.8217
vn -0.4548 0.1508 0.8777
vn -0.4693 0.1603 0.8684
vn -0.7089 0.2404 0.6631
vn -0.8385 0.2844 0.4647
vn -0.9195 0.3118 0.2393
vn -0.9470 0.3211 0.0000
vn -0.9195 0.3118 -0.2393
vn -0.8385 0.2844 -0.4647
vn -0.7089 0.2404 -0.6631
vn -0.5406 0.1802 -0.8217
vn -0.5380 0.1828 -0.8228
vn -0.4635 0.1575 -0.8719
vn -0.4055 0.1393 -0.9034
vn -0.4787 0.1665 -0.8620
vn -0.4599 0.1541 -0.8745
vn -0.3961 0.1362 -0.9080
vn -0.3356 0.1147 -0.9350
vn -0.3764 0.1278 -0.9176
vn -0.4407 0.1422 -0.8863
vn -0.3672 0.1246 -0.9217
vn -0.3549 0.1204 -0.9271
vn -0.3403 0.1154 -0.9332
vn -0.3225 0.1094 -0.9402
vn -0.3034 0.1030 -0.9473
vn -0.3426 0.1041 -0.9337
vn -0.3901 0.1295 -0.9116
vn -0.3715 0.1247 -0.9200
vn -0.3504 0.1186 -0.9290
vn -0.3328 0.1129 -0.9362
vn -0.2803 0.0953 -0.9551
vn -0.2563 0.0875 -0.9626
vn -0.3081 0.1037 -0.9456
vn -0.2871 0.0938 -0.9533
vn -0.2286 0.0783 -0.9704
vn -0.1138 0.0397 -0.9927
vn -0.1990 0.0681 -0.9776
vn -0.2626 0.0804 -0.9615
vn -0.2362 0.0649 -0.9695
vn -0.1653 0.0563 -0.9846
vn -0.1308 0.0444 -0.9904
vn -0.0939 0.0319 -0.9951
vn -0.0566 0.0194 -0.9982
vn -0.1216 0.0219 -0.9923
vn -0.2055 0.0573 -0.9770
vn -0.1737 0.0532 -0.9833
vn -0.1425 0.0471 -0.9886
vn -0.1141 0.0387 -0.9927
vn -0.0869 0.0282 -0.9958
vn -0.0656 0.0175 -0.9977
vn -0.0084 0.0034 -0.9999
vn 0.1145 -0.0377 -0.9927
vn -0.0483 0.0073 -0.9988
vn -0.0313 -0.0042 -0.9995
vn 0.0405 -0.0133 -0.9991
vn 0.0036 -0.0170 -0.9998
vn 0.0855 -0.0289 -0.9959
vn 0.1382 -0.0468 -0.9893
vn 0.1963 -0.0660 -0.9783
vn 0.1099 -0.0561 -0.9923
vn 0.0760 -0.0284 -0.9967
vn 0.2535 -0.0855 -0.9635
vn 0.3362 -0.1131 -0.9350
vn 0.2268 -0.0883 -0.9699
vn 0.1584 -0.0571 -0.9857
vn 0.3027 -0.1025 -0.9475
vn 0.3410 -0.1156 -0.9329
vn 0.3681 -0.1248 -0.9213
vn 0.4003 -0.1339 -0.9065
vn 0.5382 -0.1822 -0.8228
vn 0.3352 -0.1258 -0.9337
vn 0.2776 -0.0988 -0.9556
vn 0.3211 -0.1090 -0.9407
vn 0.3562 -0.1212 -0.9265
vn 0.3875 -0.1341 -0.9120
vn 0.4621 -0.1569 -0.8728
vn 0.4496 -0.1561 -0.8795
vn 0.5387 -0.1859 -0.8217
vn 0.7089 -0.2404 -0.6631
vn 0.8385 -0.2844 -0.4647
vn 0.9195 -0.3118 -0.2393
vn 0.0103 -0.7502 0.6612
vn -0.1464 -0.6970 0.7019
vn 0.0103 -0.7502 0.6611
vn 0.4230 -0.8901 -0.1692
vn 0.4425 -0.8967 0.0000
vn 0.1533 -0.7986 0.5819
vn 0.2741 -0.8396 0.4689
vn 0.3658 -0.8707 -0.3286
vn 0.3658 -0.8707 0.3286
vn 0.2741 -0.8396 -0.4689
vn 0.4230 -0.8901 0.1692
vn 0.1533 -0.7986 -0.5819
vn 0.0103 -0.7502 -0.6612
vn -0.1464 -0.6970 -0.7019
vn -0.3078 -0.6423 -0.7019
vn -0.4646 -0.5891 -0.6611
vn -0.6075 -0.5406 -0.5819
vn -0.7283 -0.4996 -0.4689
vn -0.8200 -0.4686 -0.3286
vn -0.8773 -0.4491 -0.1692
vn -0.8967 -0.4426 0.0000
vn -0.8773 -0.4491 0.1692
vn -0.8200 -0.4686 0.3286
vn -0.7283 -0.4996 0.4689
vn -0.6075 -0.5406 0.5819
vn -0.4646 -0.5891 0.6611
vn -0.3078 -0.6423 0.7019
vn -0.3212 -0.9470 0.0000
vn -0.3211 -0.9470 0.0000
vn -0.3211 -0.9470 0.0001
s 1
f 166//1 233//2 81//2
f 166//1 81//2 83//1
f 89//3 83//1 84//3
f 89//3 166//1 83//1
f 90//4 84//3 85//4
f 90//4 89//3 84//3
f 210//5 85//4 206//6
f 210//5 90//4 85//4
f 220//7 210//5 206//6
f 32//8 210//5 220//7
f 204//9 206//6 217//10
f 204//9 220//7 206//6
f 31//11 210//5 32//8
f 190//12 204//9 217//10
f 3//13 190//12 217//10
f 152//14 210//5 31//11
f 152//14 31//11 176//15
f 152//14 176//15 29//16
f 5//17 3//13 217//10
f 27//18 152//14 29//16
f 183//19 5//17 217//10
f 183//19 217//10 168//20
f 189//21 152//14 27//18
f 9//22 183//19 168//20
f 213//23 9//22 168//20
f 93//24 152//14 189//21
f 93//24 189//21 229//25
f 93//24 229//25 228//26
f 223//27 93//24 228//26
f 212//28 213//23 168//20
f 212//28 168//20 169//29
f 25//30 93//24 223//27
f 214//31 212//28 169//29
f 215//32 214//31 169//29
f 197//33 93//24 25//30
f 6//34 215//32 169//29
f 8//35 6//34 169//29
f 11//36 8//35 169//29
f 222//37 11//36 169//29
f 12//38 222//37 169//29
f 14//39 12//38 169//29
f 158//40 93//24 197//33
f 158//40 197//33 224//41
f 158//40 224//41 218//42
f 18//43 158//40 20//44
f 15//45 14//39 169//29
f 15//45 169//29 211//46
f 17//47 15//45 211//46
f 16//48 158//40 18//43
f 143//49 158//40 16//48
f 227//50 17//47 211//46
f 19//51 227//50 211//46
f 21//52 19//51 211//46
f 22//53 21//52 211//46
f 23//54 22//53 211//46
f 24//55 23//54 211//46
f 26//56 211//46 79//57
f 26//56 24//55 211//46
f 174//58 158//40 143//49
f 174//58 143//49 13//59
f 174//58 13//59 242//60
f 174//58 242//60 10//61
f 174//58 10//61 7//62
f 174//58 7//62 4//63
f 174//58 4//63 2//64
f 174//58 2//64 1//65
f 34//66 174//58 1//65
f 33//67 174//58 34//66
f 172//68 26//56 79//57
f 203//69 174//58 33//67
f 96//70 172//68 79//57
f 96//70 174//58 203//69
f 96//70 203//69 30//71
f 96//70 30//71 28//72
f 96//70 28//72 172//68
f 97//73 96//70 79//57
f 97//73 79//57 80//73
f 196//74 97//73 80//73
f 196//74 80//73 200//74
f 208//75 196//74 200//74
f 208//75 200//74 77//75
f 144//76 208//75 77//75
f 144//76 77//75 221//76
f 145//77 144//76 221//76
f 145//77 221//76 75//77
f 102//78 145//77 75//77
f 102//78 75//77 74//78
f 103//79 74//78 86//79
f 103//79 102//78 74//78
f 104//80 86//79 178//81
f 104//80 103//79 86//79
f 61//82 104//80 178//81
f 63//83 61//82 178//81
f 60//84 104//80 61//82
f 59//85 104//80 60//84
f 65//86 178//81 177//87
f 65//86 63//83 178//81
f 66//88 65//86 177//87
f 58//89 104//80 59//85
f 67//90 66//88 177//87
f 216//91 67//90 177//87
f 71//92 216//91 177//87
f 73//93 71//92 177//87
f 236//94 73//93 177//87
f 139//95 58//89 56//96
f 139//95 56//96 54//97
f 139//95 54//97 182//98
f 139//95 182//98 51//99
f 139//95 104//80 58//89
f 36//100 236//94 177//87
f 39//101 36//100 177//87
f 48//102 139//95 51//99
f 46//103 139//95 48//102
f 40//104 177//87 82//105
f 40//104 39//101 177//87
f 42//106 40//104 82//105
f 43//107 139//95 46//103
f 41//108 139//95 43//107
f 45//109 42//106 82//105
f 47//110 45//109 82//105
f 50//111 47//110 82//105
f 53//112 50//111 82//105
f 140//113 139//95 41//108
f 140//113 41//108 157//114
f 140//113 157//114 37//115
f 140//113 37//115 180//116
f 140//113 180//116 179//117
f 35//118 140//113 179//117
f 159//119 140//113 35//118
f 188//120 53//112 82//105
f 188//120 82//105 156//121
f 72//122 140//113 159//119
f 170//123 140//113 72//122
f 38//124 188//120 156//121
f 70//125 140//113 170//123
f 191//126 38//124 156//121
f 192//127 191//126 156//121
f 44//128 192//127 156//121
f 160//129 70//125 69//130
f 160//129 140//113 70//125
f 49//131 44//128 156//121
f 49//131 156//121 155//132
f 225//133 160//129 68//134
f 52//135 49//131 155//132
f 209//136 52//135 155//132
f 55//137 209//136 155//132
f 57//138 155//132 164//139
f 57//138 55//137 155//132
f 241//140 225//133 185//141
f 241//140 185//141 64//142
f 241//140 64//142 62//143
f 241//140 160//129 225//133
f 154//144 241//140 62//143
f 238//145 57//138 164//139
f 198//146 241//140 154//144
f 234//147 198//146 238//145
f 234//147 238//145 164//139
f 234//147 241//140 198//146
f 110//148 164//139 76//148
f 110//148 234//147 164//139
f 150//149 76//148 78//149
f 150//149 110//148 76//148
f 151//150 78//149 207//150
f 151//150 150//149 78//149
f 233//2 151//150 207//150
f 233//2 207//150 81//2
f 218//42 20//44 158//40
f 69//130 68//134 160//129
f 92//151 201//152 202//153
f 92//151 153//152 201//152
f 112//154 115//155 148//154
f 91//156 202//153 163//156
f 112//154 88//155 115//155
f 91//156 92//151 202//153
f 232//157 163//156 161//157
f 111//158 148//154 149//158
f 232//157 91//156 163//156
f 111//158 112//154 148//154
f 167//159 161//157 120//159
f 167//159 232//157 161//157
f 235//160 149//158 121//160
f 235//160 111//158 149//158
f 87//161 120//159 181//161
f 87//161 167//159 120//159
f 109//162 121//160 240//162
f 109//162 235//160 121//160
f 115//155 87//161 181//161
f 88//155 87//161 115//155
f 108//163 240//162 124//163
f 108//163 109//162 240//162
f 107//164 124//163 125//164
f 107//164 108//163 124//163
f 106//165 125//164 231//165
f 106//165 107//164 125//164
f 105//166 231//165 146//166
f 105//166 106//165 231//165
f 219//167 146//166 147//167
f 219//167 105//166 146//166
f 199//168 147//167 194//168
f 199//168 219//167 147//167
f 171//169 194//168 195//169
f 171//169 199//168 194//168
f 101//170 171//169 195//169
f 101//170 195//169 173//170
f 100//171 173//170 165//171
f 100//171 101//170 173//170
f 99//172 100//171 165//171
f 99//172 165//171 141//172
f 98//173 99//172 141//172
f 98//173 141//172 142//173
f 187//174 98//173 142//173
f 187//174 142//173 186//174
f 175//175 186//174 193//175
f 175//175 187//174 186//174
f 95//176 193//175 137//176
f 95//176 175//175 193//175
f 94//177 137//176 239//177
f 94//177 95//176 137//176
f 153//152 239//177 201//152
f 153//152 94//177 239//177
f 184//178 237//178 123//178
f 184//178 123//178 226//179
f 184//178 226//179 119//178
f 184//178 119//178 116//178
f 127//179 126//179 230//178
f 162//178 184//178 122//178
f 129//179 128//180 127//179
f 117//178 230//178 237//178
f 117//178 162//178 118//179
f 117//178 237//178 184//178
f 117//178 184//178 162//178
f 131//179 130//179 129//179
f 131//179 129//179 127//179
f 113//178 117//178 114//178
f 113//178 127//179 230//178
f 113//178 230//178 117//178
f 133//178 132//178 131//179
f 205//179 113//178 138//179
f 134//179 131//179 127//179
f 134//179 127//179 113//178
f 134//179 113//178 205//179
f 134//179 133//178 131//179
f 136//179 134//179 205//179
f 135//178 134//179 136//179
